<svg width="1280" height="48" viewBox="0 0 1280 48" fill="none" xmlns="http://www.w3.org/2000/svg">
<mask id="path-1-inside-1_4121_623" fill="white">
<path d="M0 0H1280V48H0V0Z"/>
</mask>
<path d="M0 1H1280V-1H0V1ZM1280 47H0V49H1280V47Z" fill="#1E293B" mask="url(#path-1-inside-1_4121_623)"/>
<path d="M33.1988 29V19.396H35.0188V29H33.1988ZM36.9959 29V21.636H38.4239L38.5639 22.616H38.6619C38.8299 22.392 39.0259 22.196 39.2499 22.028C39.4833 21.8507 39.7446 21.7153 40.0339 21.622C40.3326 21.5193 40.6593 21.468 41.0139 21.468C41.4806 21.468 41.8913 21.552 42.2459 21.72C42.6099 21.888 42.8946 22.1587 43.0999 22.532C43.3053 22.9053 43.4079 23.4047 43.4079 24.03V29H41.6859V24.338C41.6859 24.0767 41.6533 23.862 41.5879 23.694C41.5319 23.5167 41.4433 23.3767 41.3219 23.274C41.2099 23.162 41.0699 23.0827 40.9019 23.036C40.7339 22.9893 40.5473 22.966 40.3419 22.966C40.0339 22.966 39.7539 23.0407 39.5019 23.19C39.2593 23.3393 39.0633 23.5447 38.9139 23.806C38.7739 24.0673 38.7039 24.3707 38.7039 24.716V29H36.9959ZM47.1177 29.168C46.6604 29.168 46.3011 29.0793 46.0397 28.902C45.7784 28.7153 45.5917 28.482 45.4797 28.202C45.3771 27.9127 45.3257 27.6187 45.3257 27.32V23.036H44.4437V21.636H45.3677L45.6757 19.578H47.0337V21.636H48.3077V23.036H47.0337V27.152C47.0337 27.348 47.0851 27.502 47.1877 27.614C47.2904 27.7167 47.4444 27.768 47.6497 27.768H48.3077V28.944C48.2144 28.9813 48.0977 29.014 47.9577 29.042C47.8271 29.0793 47.6871 29.1073 47.5377 29.126C47.3884 29.154 47.2484 29.168 47.1177 29.168ZM52.7381 29.168C51.9541 29.168 51.3007 29.0327 50.7781 28.762C50.2554 28.482 49.8634 28.0573 49.6021 27.488C49.3407 26.9187 49.2101 26.1953 49.2101 25.318C49.2101 24.4313 49.3407 23.708 49.6021 23.148C49.8634 22.5787 50.2554 22.1587 50.7781 21.888C51.3007 21.608 51.9541 21.468 52.7381 21.468C53.4474 21.468 54.0401 21.6033 54.5161 21.874C55.0014 22.1353 55.3654 22.5413 55.6081 23.092C55.8507 23.6427 55.9721 24.3567 55.9721 25.234V25.738H50.9601C50.9787 26.1953 51.0487 26.5827 51.1701 26.9C51.2914 27.208 51.4781 27.4413 51.7301 27.6C51.9914 27.7493 52.3321 27.824 52.7521 27.824C52.9667 27.824 53.1674 27.796 53.3541 27.74C53.5407 27.684 53.7041 27.6 53.8441 27.488C53.9841 27.3667 54.0914 27.2173 54.1661 27.04C54.2501 26.8627 54.2921 26.6573 54.2921 26.424H55.9721C55.9721 26.8907 55.8881 27.2967 55.7201 27.642C55.5614 27.9873 55.3327 28.272 55.0341 28.496C54.7447 28.72 54.4041 28.888 54.0121 29C53.6201 29.112 53.1954 29.168 52.7381 29.168ZM50.9881 24.534H54.1941C54.1941 24.226 54.1567 23.9647 54.0821 23.75C54.0167 23.5353 53.9187 23.358 53.7881 23.218C53.6667 23.078 53.5174 22.98 53.3401 22.924C53.1627 22.8587 52.9621 22.826 52.7381 22.826C52.3741 22.826 52.0661 22.8867 51.8141 23.008C51.5714 23.1293 51.3847 23.316 51.2541 23.568C51.1234 23.82 51.0347 24.142 50.9881 24.534ZM57.4217 29V18.878H59.1297V29H57.4217ZM60.9491 20.502V18.878H62.6571V20.502H60.9491ZM60.9491 29V21.636H62.6571V29H60.9491ZM65.6944 31.548C65.3677 31.548 65.0597 31.4827 64.7704 31.352C64.4811 31.2213 64.2477 31.0253 64.0704 30.764C63.8931 30.512 63.8044 30.1993 63.8044 29.826C63.8044 29.4153 63.9211 29.0933 64.1544 28.86C64.3971 28.6173 64.6631 28.4353 64.9524 28.314C64.7377 28.202 64.5604 28.0527 64.4204 27.866C64.2897 27.6793 64.2244 27.4553 64.2244 27.194C64.2244 26.8393 64.3551 26.5593 64.6164 26.354C64.8777 26.1393 65.1764 25.9993 65.5124 25.934C65.1671 25.7193 64.9011 25.444 64.7144 25.108C64.5371 24.772 64.4484 24.3893 64.4484 23.96C64.4484 23.4467 64.5697 23.008 64.8124 22.644C65.0644 22.2707 65.4284 21.9813 65.9044 21.776C66.3804 21.5707 66.9544 21.468 67.6264 21.468C67.8971 21.468 68.1584 21.4867 68.4104 21.524C68.6624 21.5613 68.8911 21.6173 69.0964 21.692C69.4231 21.496 69.6471 21.2767 69.7684 21.034C69.8897 20.782 69.9551 20.5767 69.9644 20.418H71.6304C71.6304 20.7447 71.5651 21.034 71.4344 21.286C71.3131 21.538 71.1404 21.748 70.9164 21.916C70.6924 22.0747 70.4217 22.1913 70.1044 22.266C70.3377 22.4713 70.5151 22.7187 70.6364 23.008C70.7577 23.2973 70.8184 23.6147 70.8184 23.96C70.8184 24.4733 70.6971 24.9167 70.4544 25.29C70.2211 25.6633 69.8711 25.9527 69.4044 26.158C68.9471 26.3633 68.3824 26.466 67.7104 26.466H66.5764C66.3804 26.466 66.2264 26.508 66.1144 26.592C66.0117 26.676 65.9604 26.7927 65.9604 26.942C65.9604 27.0633 66.0071 27.1707 66.1004 27.264C66.2031 27.3573 66.3431 27.404 66.5204 27.404H69.7404C70.2911 27.404 70.7437 27.586 71.0984 27.95C71.4624 28.3047 71.6444 28.762 71.6444 29.322C71.6444 29.742 71.5324 30.12 71.3084 30.456C71.0937 30.792 70.7904 31.058 70.3984 31.254C70.0064 31.45 69.5491 31.548 69.0264 31.548H65.6944ZM66.3104 30.316H69.0124C69.1897 30.316 69.3437 30.2833 69.4744 30.218C69.6144 30.162 69.7217 30.078 69.7964 29.966C69.8804 29.854 69.9224 29.728 69.9224 29.588C69.9224 29.3453 69.8431 29.1633 69.6844 29.042C69.5351 28.9207 69.3484 28.86 69.1244 28.86H66.3104C66.0864 28.86 65.8997 28.9253 65.7504 29.056C65.6011 29.196 65.5264 29.3733 65.5264 29.588C65.5264 29.8027 65.5964 29.9753 65.7364 30.106C65.8857 30.246 66.0771 30.316 66.3104 30.316ZM67.6404 25.262C68.1351 25.262 68.5037 25.15 68.7464 24.926C68.9984 24.6927 69.1244 24.3707 69.1244 23.96C69.1244 23.5493 68.9984 23.232 68.7464 23.008C68.5037 22.784 68.1351 22.672 67.6404 22.672C67.1457 22.672 66.7724 22.784 66.5204 23.008C66.2777 23.232 66.1564 23.5493 66.1564 23.96C66.1564 24.2307 66.2077 24.464 66.3104 24.66C66.4224 24.856 66.5857 25.0053 66.8004 25.108C67.0244 25.2107 67.3044 25.262 67.6404 25.262ZM75.9119 29.168C75.1279 29.168 74.4746 29.0327 73.9519 28.762C73.4292 28.482 73.0372 28.0573 72.7759 27.488C72.5146 26.9187 72.3839 26.1953 72.3839 25.318C72.3839 24.4313 72.5146 23.708 72.7759 23.148C73.0372 22.5787 73.4292 22.1587 73.9519 21.888C74.4746 21.608 75.1279 21.468 75.9119 21.468C76.6212 21.468 77.2139 21.6033 77.6899 21.874C78.1752 22.1353 78.5392 22.5413 78.7819 23.092C79.0246 23.6427 79.1459 24.3567 79.1459 25.234V25.738H74.1339C74.1526 26.1953 74.2226 26.5827 74.3439 26.9C74.4652 27.208 74.6519 27.4413 74.9039 27.6C75.1652 27.7493 75.5059 27.824 75.9259 27.824C76.1406 27.824 76.3412 27.796 76.5279 27.74C76.7146 27.684 76.8779 27.6 77.0179 27.488C77.1579 27.3667 77.2652 27.2173 77.3399 27.04C77.4239 26.8627 77.4659 26.6573 77.4659 26.424H79.1459C79.1459 26.8907 79.0619 27.2967 78.8939 27.642C78.7352 27.9873 78.5066 28.272 78.2079 28.496C77.9186 28.72 77.5779 28.888 77.1859 29C76.7939 29.112 76.3692 29.168 75.9119 29.168ZM74.1619 24.534H77.3679C77.3679 24.226 77.3306 23.9647 77.2559 23.75C77.1906 23.5353 77.0926 23.358 76.9619 23.218C76.8406 23.078 76.6912 22.98 76.5139 22.924C76.3366 22.8587 76.1359 22.826 75.9119 22.826C75.5479 22.826 75.2399 22.8867 74.9879 23.008C74.7452 23.1293 74.5586 23.316 74.4279 23.568C74.2972 23.82 74.2086 24.142 74.1619 24.534ZM73.6159 20.726L75.0999 18.878H76.6959L78.1659 20.726H76.6819L75.5059 19.256L76.2899 19.27L75.0999 20.726H73.6159ZM80.5955 29V21.636H82.0235L82.1635 22.616H82.2615C82.4295 22.392 82.6255 22.196 82.8495 22.028C83.0829 21.8507 83.3442 21.7153 83.6335 21.622C83.9322 21.5193 84.2589 21.468 84.6135 21.468C85.0802 21.468 85.4909 21.552 85.8455 21.72C86.2095 21.888 86.4942 22.1587 86.6995 22.532C86.9049 22.9053 87.0075 23.4047 87.0075 24.03V29H85.2855V24.338C85.2855 24.0767 85.2529 23.862 85.1875 23.694C85.1315 23.5167 85.0429 23.3767 84.9215 23.274C84.8095 23.162 84.6695 23.0827 84.5015 23.036C84.3335 22.9893 84.1469 22.966 83.9415 22.966C83.6335 22.966 83.3535 23.0407 83.1015 23.19C82.8589 23.3393 82.6629 23.5447 82.5135 23.806C82.3735 24.0673 82.3035 24.3707 82.3035 24.716V29H80.5955ZM91.8373 29.168C91.072 29.168 90.4327 29.0327 89.9193 28.762C89.4153 28.482 89.0373 28.0573 88.7853 27.488C88.5333 26.9187 88.4073 26.1953 88.4073 25.318C88.4073 24.4313 88.5333 23.708 88.7853 23.148C89.0467 22.5787 89.4293 22.1587 89.9333 21.888C90.4467 21.608 91.0813 21.468 91.8373 21.468C92.332 21.468 92.7707 21.5287 93.1533 21.65C93.536 21.7713 93.8627 21.958 94.1333 22.21C94.4133 22.4527 94.6233 22.756 94.7633 23.12C94.9033 23.484 94.9733 23.9087 94.9733 24.394H93.2373C93.2373 24.0487 93.186 23.764 93.0833 23.54C92.9807 23.316 92.822 23.148 92.6073 23.036C92.402 22.9147 92.136 22.854 91.8093 22.854C91.4267 22.854 91.114 22.9427 90.8713 23.12C90.6287 23.2973 90.4467 23.5633 90.3253 23.918C90.2133 24.2633 90.1573 24.702 90.1573 25.234V25.416C90.1573 25.9387 90.2133 26.3773 90.3253 26.732C90.4467 27.0867 90.6333 27.3527 90.8853 27.53C91.1373 27.698 91.4687 27.782 91.8793 27.782C92.1967 27.782 92.458 27.726 92.6633 27.614C92.878 27.4927 93.0413 27.3153 93.1533 27.082C93.2653 26.8487 93.3213 26.5687 93.3213 26.242H94.9733C94.9733 26.6993 94.9033 27.11 94.7633 27.474C94.6233 27.838 94.418 28.146 94.1473 28.398C93.8767 28.65 93.5453 28.8413 93.1533 28.972C92.7707 29.1027 92.332 29.168 91.8373 29.168ZM96.4276 20.502V18.878H98.1356V20.502H96.4276ZM96.4276 29V21.636H98.1356V29H96.4276ZM101.845 29.168C101.64 29.168 101.402 29.14 101.131 29.084C100.87 29.0373 100.613 28.944 100.361 28.804C100.118 28.664 99.9176 28.4587 99.7589 28.188C99.6003 27.908 99.5209 27.544 99.5209 27.096C99.5209 26.592 99.6329 26.1767 99.8569 25.85C100.081 25.514 100.394 25.2527 100.795 25.066C101.206 24.87 101.691 24.7347 102.251 24.66C102.82 24.576 103.441 24.534 104.113 24.534V23.932C104.113 23.7173 104.08 23.526 104.015 23.358C103.95 23.19 103.828 23.0593 103.651 22.966C103.483 22.8633 103.226 22.812 102.881 22.812C102.536 22.812 102.265 22.854 102.069 22.938C101.873 23.022 101.738 23.1247 101.663 23.246C101.588 23.3673 101.551 23.4933 101.551 23.624V23.82H99.8989C99.8896 23.7733 99.8849 23.7267 99.8849 23.68C99.8849 23.6333 99.8849 23.5773 99.8849 23.512C99.8849 23.092 100.011 22.728 100.263 22.42C100.515 22.112 100.865 21.8787 101.313 21.72C101.761 21.552 102.279 21.468 102.867 21.468C103.539 21.468 104.09 21.5613 104.519 21.748C104.958 21.9347 105.284 22.2007 105.499 22.546C105.714 22.8913 105.821 23.3113 105.821 23.806V27.278C105.821 27.4553 105.872 27.5813 105.975 27.656C106.078 27.7307 106.19 27.768 106.311 27.768H106.759V28.944C106.666 28.9813 106.53 29.0233 106.353 29.07C106.176 29.126 105.956 29.154 105.695 29.154C105.452 29.154 105.233 29.112 105.037 29.028C104.85 28.9533 104.692 28.8413 104.561 28.692C104.43 28.5427 104.337 28.3653 104.281 28.16H104.197C104.038 28.356 103.847 28.5333 103.623 28.692C103.408 28.8413 103.152 28.958 102.853 29.042C102.564 29.126 102.228 29.168 101.845 29.168ZM102.363 27.768C102.643 27.768 102.89 27.726 103.105 27.642C103.329 27.558 103.511 27.4413 103.651 27.292C103.8 27.1427 103.912 26.9607 103.987 26.746C104.071 26.5313 104.113 26.298 104.113 26.046V25.71C103.6 25.71 103.124 25.7427 102.685 25.808C102.256 25.8733 101.91 25.9947 101.649 26.172C101.397 26.3493 101.271 26.6013 101.271 26.928C101.271 27.096 101.308 27.2453 101.383 27.376C101.467 27.4973 101.588 27.5953 101.747 27.67C101.915 27.7353 102.12 27.768 102.363 27.768ZM109.697 29L113.435 19.396H115.731L119.483 29H117.509L116.739 26.956H112.343L111.573 29H109.697ZM112.917 25.416H116.151L115.185 22.812C115.148 22.7187 115.101 22.602 115.045 22.462C114.998 22.3127 114.947 22.154 114.891 21.986C114.835 21.8087 114.779 21.6313 114.723 21.454C114.667 21.2767 114.616 21.118 114.569 20.978H114.499C114.443 21.1647 114.373 21.3793 114.289 21.622C114.214 21.8647 114.14 22.0933 114.065 22.308C113.99 22.5227 113.93 22.6907 113.883 22.812L112.917 25.416ZM120.463 29V21.636H121.891L122.031 22.798H122.129C122.222 22.5647 122.334 22.35 122.465 22.154C122.605 21.9487 122.782 21.7853 122.997 21.664C123.211 21.5333 123.473 21.468 123.781 21.468C123.93 21.468 124.065 21.482 124.187 21.51C124.317 21.538 124.415 21.566 124.481 21.594V23.204H123.963C123.673 23.204 123.417 23.246 123.193 23.33C122.969 23.4047 122.777 23.526 122.619 23.694C122.469 23.862 122.357 24.072 122.283 24.324C122.208 24.576 122.171 24.87 122.171 25.206V29H120.463ZM127.481 29.168C127.024 29.168 126.664 29.0793 126.403 28.902C126.142 28.7153 125.955 28.482 125.843 28.202C125.74 27.9127 125.689 27.6187 125.689 27.32V23.036H124.807V21.636H125.731L126.039 19.578H127.397V21.636H128.671V23.036H127.397V27.152C127.397 27.348 127.448 27.502 127.551 27.614C127.654 27.7167 127.808 27.768 128.013 27.768H128.671V28.944C128.578 28.9813 128.461 29.014 128.321 29.042C128.19 29.0793 128.05 29.1073 127.901 29.126C127.752 29.154 127.612 29.168 127.481 29.168ZM129.937 20.502V18.878H131.645V20.502H129.937ZM129.937 29V21.636H131.645V29H129.937ZM133.815 29V23.036H132.751V21.636H133.815V20.698C133.815 20.3713 133.866 20.0633 133.969 19.774C134.081 19.4753 134.272 19.2327 134.543 19.046C134.813 18.8593 135.191 18.766 135.677 18.766C135.817 18.766 135.957 18.7753 136.097 18.794C136.246 18.8127 136.386 18.8407 136.517 18.878C136.647 18.906 136.759 18.9387 136.853 18.976V20.166H136.153C135.947 20.166 135.789 20.222 135.677 20.334C135.574 20.4367 135.523 20.5907 135.523 20.796V21.636H136.853V23.036H135.523V29H133.815ZM137.763 20.502V18.878H139.471V20.502H137.763ZM137.763 29V21.636H139.471V29H137.763ZM144.351 29.168C143.586 29.168 142.946 29.0327 142.433 28.762C141.929 28.482 141.551 28.0573 141.299 27.488C141.047 26.9187 140.921 26.1953 140.921 25.318C140.921 24.4313 141.047 23.708 141.299 23.148C141.56 22.5787 141.943 22.1587 142.447 21.888C142.96 21.608 143.595 21.468 144.351 21.468C144.846 21.468 145.284 21.5287 145.667 21.65C146.05 21.7713 146.376 21.958 146.647 22.21C146.927 22.4527 147.137 22.756 147.277 23.12C147.417 23.484 147.487 23.9087 147.487 24.394H145.751C145.751 24.0487 145.7 23.764 145.597 23.54C145.494 23.316 145.336 23.148 145.121 23.036C144.916 22.9147 144.65 22.854 144.323 22.854C143.94 22.854 143.628 22.9427 143.385 23.12C143.142 23.2973 142.96 23.5633 142.839 23.918C142.727 24.2633 142.671 24.702 142.671 25.234V25.416C142.671 25.9387 142.727 26.3773 142.839 26.732C142.96 27.0867 143.147 27.3527 143.399 27.53C143.651 27.698 143.982 27.782 144.393 27.782C144.71 27.782 144.972 27.726 145.177 27.614C145.392 27.4927 145.555 27.3153 145.667 27.082C145.779 26.8487 145.835 26.5687 145.835 26.242H147.487C147.487 26.6993 147.417 27.11 147.277 27.474C147.137 27.838 146.932 28.146 146.661 28.398C146.39 28.65 146.059 28.8413 145.667 28.972C145.284 29.1027 144.846 29.168 144.351 29.168ZM148.941 20.502V18.878H150.649V20.502H148.941ZM148.941 29V21.636H150.649V29H148.941ZM154.359 29.168C154.153 29.168 153.915 29.14 153.645 29.084C153.383 29.0373 153.127 28.944 152.875 28.804C152.632 28.664 152.431 28.4587 152.273 28.188C152.114 27.908 152.035 27.544 152.035 27.096C152.035 26.592 152.147 26.1767 152.371 25.85C152.595 25.514 152.907 25.2527 153.309 25.066C153.719 24.87 154.205 24.7347 154.765 24.66C155.334 24.576 155.955 24.534 156.627 24.534V23.932C156.627 23.7173 156.594 23.526 156.529 23.358C156.463 23.19 156.342 23.0593 156.165 22.966C155.997 22.8633 155.74 22.812 155.395 22.812C155.049 22.812 154.779 22.854 154.583 22.938C154.387 23.022 154.251 23.1247 154.177 23.246C154.102 23.3673 154.065 23.4933 154.065 23.624V23.82H152.413C152.403 23.7733 152.399 23.7267 152.399 23.68C152.399 23.6333 152.399 23.5773 152.399 23.512C152.399 23.092 152.525 22.728 152.777 22.42C153.029 22.112 153.379 21.8787 153.827 21.72C154.275 21.552 154.793 21.468 155.381 21.468C156.053 21.468 156.603 21.5613 157.033 21.748C157.471 21.9347 157.798 22.2007 158.013 22.546C158.227 22.8913 158.335 23.3113 158.335 23.806V27.278C158.335 27.4553 158.386 27.5813 158.489 27.656C158.591 27.7307 158.703 27.768 158.825 27.768H159.273V28.944C159.179 28.9813 159.044 29.0233 158.867 29.07C158.689 29.126 158.47 29.154 158.209 29.154C157.966 29.154 157.747 29.112 157.551 29.028C157.364 28.9533 157.205 28.8413 157.075 28.692C156.944 28.5427 156.851 28.3653 156.795 28.16H156.711C156.552 28.356 156.361 28.5333 156.137 28.692C155.922 28.8413 155.665 28.958 155.367 29.042C155.077 29.126 154.741 29.168 154.359 29.168ZM154.877 27.768C155.157 27.768 155.404 27.726 155.619 27.642C155.843 27.558 156.025 27.4413 156.165 27.292C156.314 27.1427 156.426 26.9607 156.501 26.746C156.585 26.5313 156.627 26.298 156.627 26.046V25.71C156.113 25.71 155.637 25.7427 155.199 25.808C154.769 25.8733 154.424 25.9947 154.163 26.172C153.911 26.3493 153.785 26.6013 153.785 26.928C153.785 27.096 153.822 27.2453 153.897 27.376C153.981 27.4973 154.102 27.5953 154.261 27.67C154.429 27.7353 154.634 27.768 154.877 27.768ZM160.248 29V18.878H161.956V29H160.248Z" fill="#CBD5E1"/>
<path d="M259.134 29V19.396H264.37C264.884 19.396 265.341 19.494 265.742 19.69C266.153 19.886 266.475 20.1613 266.708 20.516C266.942 20.8707 267.058 21.286 267.058 21.762C267.058 22.126 266.988 22.4573 266.848 22.756C266.708 23.0547 266.517 23.3067 266.274 23.512C266.041 23.708 265.775 23.8573 265.476 23.96V24.016C265.831 24.0907 266.148 24.2353 266.428 24.45C266.708 24.6553 266.928 24.9213 267.086 25.248C267.245 25.5653 267.324 25.934 267.324 26.354C267.324 26.9513 267.189 27.446 266.918 27.838C266.657 28.23 266.302 28.524 265.854 28.72C265.416 28.9067 264.921 29 264.37 29H259.134ZM260.954 27.446H264.132C264.515 27.446 264.828 27.3433 265.07 27.138C265.322 26.9233 265.448 26.592 265.448 26.144C265.448 25.8827 265.397 25.654 265.294 25.458C265.192 25.262 265.033 25.1127 264.818 25.01C264.613 24.898 264.347 24.842 264.02 24.842H260.954V27.446ZM260.954 23.316H263.894C264.174 23.316 264.408 23.2647 264.594 23.162C264.79 23.0593 264.935 22.9193 265.028 22.742C265.131 22.5647 265.182 22.3687 265.182 22.154C265.182 21.7433 265.07 21.44 264.846 21.244C264.632 21.048 264.347 20.95 263.992 20.95H260.954V23.316ZM268.865 29V18.878H270.573V29H268.865ZM275.668 29.168C274.866 29.168 274.194 29.0327 273.652 28.762C273.111 28.482 272.705 28.0573 272.434 27.488C272.164 26.9187 272.028 26.1953 272.028 25.318C272.028 24.4313 272.164 23.708 272.434 23.148C272.705 22.5787 273.111 22.1587 273.652 21.888C274.194 21.608 274.866 21.468 275.668 21.468C276.48 21.468 277.152 21.608 277.684 21.888C278.226 22.1587 278.632 22.5787 278.902 23.148C279.173 23.708 279.308 24.4313 279.308 25.318C279.308 26.1953 279.173 26.9187 278.902 27.488C278.632 28.0573 278.226 28.482 277.684 28.762C277.152 29.0327 276.48 29.168 275.668 29.168ZM275.668 27.768C276.116 27.768 276.476 27.684 276.746 27.516C277.026 27.3387 277.227 27.0773 277.348 26.732C277.479 26.3773 277.544 25.9387 277.544 25.416V25.22C277.544 24.6973 277.479 24.2633 277.348 23.918C277.227 23.5633 277.026 23.302 276.746 23.134C276.476 22.9567 276.116 22.868 275.668 22.868C275.22 22.868 274.856 22.9567 274.576 23.134C274.306 23.302 274.105 23.5633 273.974 23.918C273.853 24.2633 273.792 24.6973 273.792 25.22V25.416C273.792 25.9387 273.853 26.3773 273.974 26.732C274.105 27.0773 274.306 27.3387 274.576 27.516C274.856 27.684 275.22 27.768 275.668 27.768ZM283.826 29.168C283.06 29.168 282.421 29.0327 281.908 28.762C281.404 28.482 281.026 28.0573 280.774 27.488C280.522 26.9187 280.396 26.1953 280.396 25.318C280.396 24.4313 280.522 23.708 280.774 23.148C281.035 22.5787 281.418 22.1587 281.922 21.888C282.435 21.608 283.07 21.468 283.826 21.468C284.32 21.468 284.759 21.5287 285.142 21.65C285.524 21.7713 285.851 21.958 286.122 22.21C286.402 22.4527 286.612 22.756 286.752 23.12C286.892 23.484 286.962 23.9087 286.962 24.394H285.226C285.226 24.0487 285.174 23.764 285.072 23.54C284.969 23.316 284.81 23.148 284.596 23.036C284.39 22.9147 284.124 22.854 283.798 22.854C283.415 22.854 283.102 22.9427 282.86 23.12C282.617 23.2973 282.435 23.5633 282.314 23.918C282.202 24.2633 282.146 24.702 282.146 25.234V25.416C282.146 25.9387 282.202 26.3773 282.314 26.732C282.435 27.0867 282.622 27.3527 282.874 27.53C283.126 27.698 283.457 27.782 283.868 27.782C284.185 27.782 284.446 27.726 284.652 27.614C284.866 27.4927 285.03 27.3153 285.142 27.082C285.254 26.8487 285.31 26.5687 285.31 26.242H286.962C286.962 26.6993 286.892 27.11 286.752 27.474C286.612 27.838 286.406 28.146 286.136 28.398C285.865 28.65 285.534 28.8413 285.142 28.972C284.759 29.1027 284.32 29.168 283.826 29.168ZM288.416 29V18.878H290.124V24.772L292.77 21.636H294.772L292.308 24.492L294.912 29H292.952L291.216 25.738L290.124 26.788V29H288.416ZM298.591 29.168C297.826 29.168 297.187 29.0327 296.673 28.762C296.169 28.482 295.791 28.0573 295.539 27.488C295.287 26.9187 295.161 26.1953 295.161 25.318C295.161 24.4313 295.287 23.708 295.539 23.148C295.801 22.5787 296.183 22.1587 296.687 21.888C297.201 21.608 297.835 21.468 298.591 21.468C299.086 21.468 299.525 21.5287 299.907 21.65C300.29 21.7713 300.617 21.958 300.887 22.21C301.167 22.4527 301.377 22.756 301.517 23.12C301.657 23.484 301.727 23.9087 301.727 24.394H299.991C299.991 24.0487 299.94 23.764 299.837 23.54C299.735 23.316 299.576 23.148 299.361 23.036C299.156 22.9147 298.89 22.854 298.563 22.854C298.181 22.854 297.868 22.9427 297.625 23.12C297.383 23.2973 297.201 23.5633 297.079 23.918C296.967 24.2633 296.911 24.702 296.911 25.234V25.416C296.911 25.9387 296.967 26.3773 297.079 26.732C297.201 27.0867 297.387 27.3527 297.639 27.53C297.891 27.698 298.223 27.782 298.633 27.782C298.951 27.782 299.212 27.726 299.417 27.614C299.632 27.4927 299.795 27.3153 299.907 27.082C300.019 26.8487 300.075 26.5687 300.075 26.242H301.727C301.727 26.6993 301.657 27.11 301.517 27.474C301.377 27.838 301.172 28.146 300.901 28.398C300.631 28.65 300.299 28.8413 299.907 28.972C299.525 29.1027 299.086 29.168 298.591 29.168ZM303.181 29V18.878H304.889V22.476H304.987C305.146 22.28 305.333 22.1073 305.547 21.958C305.762 21.8087 306.005 21.692 306.275 21.608C306.555 21.5147 306.863 21.468 307.199 21.468C307.666 21.468 308.077 21.552 308.431 21.72C308.795 21.888 309.08 22.1587 309.285 22.532C309.491 22.9053 309.593 23.4047 309.593 24.03V29H307.871V24.338C307.871 24.0767 307.839 23.862 307.773 23.694C307.717 23.5167 307.629 23.3767 307.507 23.274C307.395 23.162 307.255 23.0827 307.087 23.036C306.919 22.9893 306.733 22.966 306.527 22.966C306.219 22.966 305.939 23.0407 305.687 23.19C305.445 23.3393 305.249 23.5447 305.099 23.806C304.959 24.0673 304.889 24.3707 304.889 24.716V29H303.181ZM313.247 29.168C313.042 29.168 312.804 29.14 312.533 29.084C312.272 29.0373 312.015 28.944 311.763 28.804C311.521 28.664 311.32 28.4587 311.161 28.188C311.003 27.908 310.923 27.544 310.923 27.096C310.923 26.592 311.035 26.1767 311.259 25.85C311.483 25.514 311.796 25.2527 312.197 25.066C312.608 24.87 313.093 24.7347 313.653 24.66C314.223 24.576 314.843 24.534 315.515 24.534V23.932C315.515 23.7173 315.483 23.526 315.417 23.358C315.352 23.19 315.231 23.0593 315.053 22.966C314.885 22.8633 314.629 22.812 314.283 22.812C313.938 22.812 313.667 22.854 313.471 22.938C313.275 23.022 313.14 23.1247 313.065 23.246C312.991 23.3673 312.953 23.4933 312.953 23.624V23.82H311.301C311.292 23.7733 311.287 23.7267 311.287 23.68C311.287 23.6333 311.287 23.5773 311.287 23.512C311.287 23.092 311.413 22.728 311.665 22.42C311.917 22.112 312.267 21.8787 312.715 21.72C313.163 21.552 313.681 21.468 314.269 21.468C314.941 21.468 315.492 21.5613 315.921 21.748C316.36 21.9347 316.687 22.2007 316.901 22.546C317.116 22.8913 317.223 23.3113 317.223 23.806V27.278C317.223 27.4553 317.275 27.5813 317.377 27.656C317.48 27.7307 317.592 27.768 317.713 27.768H318.161V28.944C318.068 28.9813 317.933 29.0233 317.755 29.07C317.578 29.126 317.359 29.154 317.097 29.154C316.855 29.154 316.635 29.112 316.439 29.028C316.253 28.9533 316.094 28.8413 315.963 28.692C315.833 28.5427 315.739 28.3653 315.683 28.16H315.599C315.441 28.356 315.249 28.5333 315.025 28.692C314.811 28.8413 314.554 28.958 314.255 29.042C313.966 29.126 313.63 29.168 313.247 29.168ZM313.765 27.768C314.045 27.768 314.293 27.726 314.507 27.642C314.731 27.558 314.913 27.4413 315.053 27.292C315.203 27.1427 315.315 26.9607 315.389 26.746C315.473 26.5313 315.515 26.298 315.515 26.046V25.71C315.002 25.71 314.526 25.7427 314.087 25.808C313.658 25.8733 313.313 25.9947 313.051 26.172C312.799 26.3493 312.673 26.6013 312.673 26.928C312.673 27.096 312.711 27.2453 312.785 27.376C312.869 27.4973 312.991 27.5953 313.149 27.67C313.317 27.7353 313.523 27.768 313.765 27.768ZM319.137 20.502V18.878H320.845V20.502H319.137ZM319.137 29V21.636H320.845V29H319.137ZM322.664 29V21.636H324.092L324.232 22.616H324.33C324.498 22.392 324.694 22.196 324.918 22.028C325.151 21.8507 325.413 21.7153 325.702 21.622C326.001 21.5193 326.327 21.468 326.682 21.468C327.149 21.468 327.559 21.552 327.914 21.72C328.278 21.888 328.563 22.1587 328.768 22.532C328.973 22.9053 329.076 23.4047 329.076 24.03V29H327.354V24.338C327.354 24.0767 327.321 23.862 327.256 23.694C327.2 23.5167 327.111 23.3767 326.99 23.274C326.878 23.162 326.738 23.0827 326.57 23.036C326.402 22.9893 326.215 22.966 326.01 22.966C325.702 22.966 325.422 23.0407 325.17 23.19C324.927 23.3393 324.731 23.5447 324.582 23.806C324.442 24.0673 324.372 24.3707 324.372 24.716V29H322.664Z" fill="#CBD5E1"/>
<path d="M426.107 29V19.396H427.927V23.302H432.407V19.396H434.227V29H432.407V24.87H427.927V29H426.107ZM439.483 29.168C438.68 29.168 438.008 29.0327 437.467 28.762C436.926 28.482 436.52 28.0573 436.249 27.488C435.978 26.9187 435.843 26.1953 435.843 25.318C435.843 24.4313 435.978 23.708 436.249 23.148C436.52 22.5787 436.926 22.1587 437.467 21.888C438.008 21.608 438.68 21.468 439.483 21.468C440.295 21.468 440.967 21.608 441.499 21.888C442.04 22.1587 442.446 22.5787 442.717 23.148C442.988 23.708 443.123 24.4313 443.123 25.318C443.123 26.1953 442.988 26.9187 442.717 27.488C442.446 28.0573 442.04 28.482 441.499 28.762C440.967 29.0327 440.295 29.168 439.483 29.168ZM439.483 27.768C439.931 27.768 440.29 27.684 440.561 27.516C440.841 27.3387 441.042 27.0773 441.163 26.732C441.294 26.3773 441.359 25.9387 441.359 25.416V25.22C441.359 24.6973 441.294 24.2633 441.163 23.918C441.042 23.5633 440.841 23.302 440.561 23.134C440.29 22.9567 439.931 22.868 439.483 22.868C439.035 22.868 438.671 22.9567 438.391 23.134C438.12 23.302 437.92 23.5633 437.789 23.918C437.668 24.2633 437.607 24.6973 437.607 25.22V25.416C437.607 25.9387 437.668 26.3773 437.789 26.732C437.92 27.0773 438.12 27.3387 438.391 27.516C438.671 27.684 439.035 27.768 439.483 27.768ZM444.574 29V18.878H446.282V29H444.574ZM451.377 29.168C450.575 29.168 449.903 29.0327 449.361 28.762C448.82 28.482 448.414 28.0573 448.143 27.488C447.873 26.9187 447.737 26.1953 447.737 25.318C447.737 24.4313 447.873 23.708 448.143 23.148C448.414 22.5787 448.82 22.1587 449.361 21.888C449.903 21.608 450.575 21.468 451.377 21.468C452.189 21.468 452.861 21.608 453.393 21.888C453.935 22.1587 454.341 22.5787 454.611 23.148C454.882 23.708 455.017 24.4313 455.017 25.318C455.017 26.1953 454.882 26.9187 454.611 27.488C454.341 28.0573 453.935 28.482 453.393 28.762C452.861 29.0327 452.189 29.168 451.377 29.168ZM451.377 27.768C451.825 27.768 452.185 27.684 452.455 27.516C452.735 27.3387 452.936 27.0773 453.057 26.732C453.188 26.3773 453.253 25.9387 453.253 25.416V25.22C453.253 24.6973 453.188 24.2633 453.057 23.918C452.936 23.5633 452.735 23.302 452.455 23.134C452.185 22.9567 451.825 22.868 451.377 22.868C450.929 22.868 450.565 22.9567 450.285 23.134C450.015 23.302 449.814 23.5633 449.683 23.918C449.562 24.2633 449.501 24.6973 449.501 25.22V25.416C449.501 25.9387 449.562 26.3773 449.683 26.732C449.814 27.0773 450.015 27.3387 450.285 27.516C450.565 27.684 450.929 27.768 451.377 27.768ZM457.687 31.548C457.36 31.548 457.052 31.4827 456.763 31.352C456.473 31.2213 456.24 31.0253 456.063 30.764C455.885 30.512 455.797 30.1993 455.797 29.826C455.797 29.4153 455.913 29.0933 456.147 28.86C456.389 28.6173 456.655 28.4353 456.945 28.314C456.73 28.202 456.553 28.0527 456.413 27.866C456.282 27.6793 456.217 27.4553 456.217 27.194C456.217 26.8393 456.347 26.5593 456.609 26.354C456.87 26.1393 457.169 25.9993 457.505 25.934C457.159 25.7193 456.893 25.444 456.707 25.108C456.529 24.772 456.441 24.3893 456.441 23.96C456.441 23.4467 456.562 23.008 456.805 22.644C457.057 22.2707 457.421 21.9813 457.897 21.776C458.373 21.5707 458.947 21.468 459.619 21.468C459.889 21.468 460.151 21.4867 460.403 21.524C460.655 21.5613 460.883 21.6173 461.089 21.692C461.415 21.496 461.639 21.2767 461.761 21.034C461.882 20.782 461.947 20.5767 461.957 20.418H463.623C463.623 20.7447 463.557 21.034 463.427 21.286C463.305 21.538 463.133 21.748 462.909 21.916C462.685 22.0747 462.414 22.1913 462.097 22.266C462.33 22.4713 462.507 22.7187 462.629 23.008C462.75 23.2973 462.811 23.6147 462.811 23.96C462.811 24.4733 462.689 24.9167 462.447 25.29C462.213 25.6633 461.863 25.9527 461.397 26.158C460.939 26.3633 460.375 26.466 459.703 26.466H458.569C458.373 26.466 458.219 26.508 458.107 26.592C458.004 26.676 457.953 26.7927 457.953 26.942C457.953 27.0633 457.999 27.1707 458.093 27.264C458.195 27.3573 458.335 27.404 458.513 27.404H461.733C462.283 27.404 462.736 27.586 463.091 27.95C463.455 28.3047 463.637 28.762 463.637 29.322C463.637 29.742 463.525 30.12 463.301 30.456C463.086 30.792 462.783 31.058 462.391 31.254C461.999 31.45 461.541 31.548 461.019 31.548H457.687ZM458.303 30.316H461.005C461.182 30.316 461.336 30.2833 461.467 30.218C461.607 30.162 461.714 30.078 461.789 29.966C461.873 29.854 461.915 29.728 461.915 29.588C461.915 29.3453 461.835 29.1633 461.677 29.042C461.527 28.9207 461.341 28.86 461.117 28.86H458.303C458.079 28.86 457.892 28.9253 457.743 29.056C457.593 29.196 457.519 29.3733 457.519 29.588C457.519 29.8027 457.589 29.9753 457.729 30.106C457.878 30.246 458.069 30.316 458.303 30.316ZM459.633 25.262C460.127 25.262 460.496 25.15 460.739 24.926C460.991 24.6927 461.117 24.3707 461.117 23.96C461.117 23.5493 460.991 23.232 460.739 23.008C460.496 22.784 460.127 22.672 459.633 22.672C459.138 22.672 458.765 22.784 458.513 23.008C458.27 23.232 458.149 23.5493 458.149 23.96C458.149 24.2307 458.2 24.464 458.303 24.66C458.415 24.856 458.578 25.0053 458.793 25.108C459.017 25.2107 459.297 25.262 459.633 25.262ZM464.74 29V21.636H466.168L466.308 22.798H466.406C466.499 22.5647 466.611 22.35 466.742 22.154C466.882 21.9487 467.059 21.7853 467.274 21.664C467.489 21.5333 467.75 21.468 468.058 21.468C468.207 21.468 468.343 21.482 468.464 21.51C468.595 21.538 468.693 21.566 468.758 21.594V23.204H468.24C467.951 23.204 467.694 23.246 467.47 23.33C467.246 23.4047 467.055 23.526 466.896 23.694C466.747 23.862 466.635 24.072 466.56 24.324C466.485 24.576 466.448 24.87 466.448 25.206V29H464.74ZM471.566 29.168C471.36 29.168 471.122 29.14 470.852 29.084C470.59 29.0373 470.334 28.944 470.082 28.804C469.839 28.664 469.638 28.4587 469.48 28.188C469.321 27.908 469.242 27.544 469.242 27.096C469.242 26.592 469.354 26.1767 469.578 25.85C469.802 25.514 470.114 25.2527 470.516 25.066C470.926 24.87 471.412 24.7347 471.972 24.66C472.541 24.576 473.162 24.534 473.834 24.534V23.932C473.834 23.7173 473.801 23.526 473.736 23.358C473.67 23.19 473.549 23.0593 473.372 22.966C473.204 22.8633 472.947 22.812 472.602 22.812C472.256 22.812 471.986 22.854 471.79 22.938C471.594 23.022 471.458 23.1247 471.384 23.246C471.309 23.3673 471.272 23.4933 471.272 23.624V23.82H469.62C469.61 23.7733 469.606 23.7267 469.606 23.68C469.606 23.6333 469.606 23.5773 469.606 23.512C469.606 23.092 469.732 22.728 469.984 22.42C470.236 22.112 470.586 21.8787 471.034 21.72C471.482 21.552 472 21.468 472.588 21.468C473.26 21.468 473.81 21.5613 474.24 21.748C474.678 21.9347 475.005 22.2007 475.22 22.546C475.434 22.8913 475.542 23.3113 475.542 23.806V27.278C475.542 27.4553 475.593 27.5813 475.696 27.656C475.798 27.7307 475.91 27.768 476.032 27.768H476.48V28.944C476.386 28.9813 476.251 29.0233 476.074 29.07C475.896 29.126 475.677 29.154 475.416 29.154C475.173 29.154 474.954 29.112 474.758 29.028C474.571 28.9533 474.412 28.8413 474.282 28.692C474.151 28.5427 474.058 28.3653 474.002 28.16H473.918C473.759 28.356 473.568 28.5333 473.344 28.692C473.129 28.8413 472.872 28.958 472.574 29.042C472.284 29.126 471.948 29.168 471.566 29.168ZM472.084 27.768C472.364 27.768 472.611 27.726 472.826 27.642C473.05 27.558 473.232 27.4413 473.372 27.292C473.521 27.1427 473.633 26.9607 473.708 26.746C473.792 26.5313 473.834 26.298 473.834 26.046V25.71C473.32 25.71 472.844 25.7427 472.406 25.808C471.976 25.8733 471.631 25.9947 471.37 26.172C471.118 26.3493 470.992 26.6013 470.992 26.928C470.992 27.096 471.029 27.2453 471.104 27.376C471.188 27.4973 471.309 27.5953 471.468 27.67C471.636 27.7353 471.841 27.768 472.084 27.768ZM477.455 29V21.636H478.883L479.023 22.616H479.121C479.28 22.392 479.462 22.196 479.667 22.028C479.872 21.8507 480.106 21.7153 480.367 21.622C480.638 21.5193 480.932 21.468 481.249 21.468C481.678 21.468 482.061 21.5567 482.397 21.734C482.733 21.9113 482.994 22.2053 483.181 22.616H483.279C483.438 22.392 483.624 22.196 483.839 22.028C484.054 21.8507 484.301 21.7153 484.581 21.622C484.861 21.5193 485.164 21.468 485.491 21.468C485.93 21.468 486.317 21.5473 486.653 21.706C486.989 21.8647 487.255 22.126 487.451 22.49C487.647 22.854 487.745 23.3393 487.745 23.946V29H486.037V24.296C486.037 24.044 486.009 23.834 485.953 23.666C485.897 23.4887 485.818 23.3533 485.715 23.26C485.622 23.1573 485.5 23.0827 485.351 23.036C485.211 22.9893 485.057 22.966 484.889 22.966C484.618 22.966 484.376 23.0407 484.161 23.19C483.946 23.3393 483.774 23.5447 483.643 23.806C483.522 24.0673 483.461 24.3707 483.461 24.716V29H481.753V24.296C481.753 24.044 481.725 23.834 481.669 23.666C481.613 23.4887 481.534 23.3533 481.431 23.26C481.338 23.1573 481.216 23.0827 481.067 23.036C480.927 22.9893 480.773 22.966 480.605 22.966C480.334 22.966 480.087 23.0407 479.863 23.19C479.648 23.3393 479.476 23.5447 479.345 23.806C479.224 24.0673 479.163 24.3707 479.163 24.716V29H477.455ZM491.404 29.168C491.198 29.168 490.96 29.14 490.69 29.084C490.428 29.0373 490.172 28.944 489.92 28.804C489.677 28.664 489.476 28.4587 489.318 28.188C489.159 27.908 489.08 27.544 489.08 27.096C489.08 26.592 489.192 26.1767 489.416 25.85C489.64 25.514 489.952 25.2527 490.354 25.066C490.764 24.87 491.25 24.7347 491.81 24.66C492.379 24.576 493 24.534 493.672 24.534V23.932C493.672 23.7173 493.639 23.526 493.574 23.358C493.508 23.19 493.387 23.0593 493.21 22.966C493.042 22.8633 492.785 22.812 492.44 22.812C492.094 22.812 491.824 22.854 491.628 22.938C491.432 23.022 491.296 23.1247 491.222 23.246C491.147 23.3673 491.11 23.4933 491.11 23.624V23.82H489.458C489.448 23.7733 489.444 23.7267 489.444 23.68C489.444 23.6333 489.444 23.5773 489.444 23.512C489.444 23.092 489.57 22.728 489.822 22.42C490.074 22.112 490.424 21.8787 490.872 21.72C491.32 21.552 491.838 21.468 492.426 21.468C493.098 21.468 493.648 21.5613 494.078 21.748C494.516 21.9347 494.843 22.2007 495.058 22.546C495.272 22.8913 495.38 23.3113 495.38 23.806V27.278C495.38 27.4553 495.431 27.5813 495.534 27.656C495.636 27.7307 495.748 27.768 495.87 27.768H496.318V28.944C496.224 28.9813 496.089 29.0233 495.912 29.07C495.734 29.126 495.515 29.154 495.254 29.154C495.011 29.154 494.792 29.112 494.596 29.028C494.409 28.9533 494.25 28.8413 494.12 28.692C493.989 28.5427 493.896 28.3653 493.84 28.16H493.756C493.597 28.356 493.406 28.5333 493.182 28.692C492.967 28.8413 492.71 28.958 492.412 29.042C492.122 29.126 491.786 29.168 491.404 29.168ZM491.922 27.768C492.202 27.768 492.449 27.726 492.664 27.642C492.888 27.558 493.07 27.4413 493.21 27.292C493.359 27.1427 493.471 26.9607 493.546 26.746C493.63 26.5313 493.672 26.298 493.672 26.046V25.71C493.158 25.71 492.682 25.7427 492.244 25.808C491.814 25.8733 491.469 25.9947 491.208 26.172C490.956 26.3493 490.83 26.6013 490.83 26.928C490.83 27.096 490.867 27.2453 490.942 27.376C491.026 27.4973 491.147 27.5953 491.306 27.67C491.474 27.7353 491.679 27.768 491.922 27.768ZM500.163 29.168C499.631 29.168 499.164 29.112 498.763 29C498.361 28.8787 498.025 28.7153 497.755 28.51C497.484 28.3047 497.279 28.0667 497.139 27.796C497.008 27.516 496.943 27.2127 496.943 26.886C496.943 26.8393 496.943 26.7973 496.943 26.76C496.952 26.7227 496.957 26.6947 496.957 26.676H498.637C498.637 26.6947 498.637 26.7133 498.637 26.732C498.637 26.7507 498.637 26.7693 498.637 26.788C498.646 27.04 498.725 27.2453 498.875 27.404C499.024 27.5533 499.22 27.6607 499.463 27.726C499.705 27.7913 499.962 27.824 500.233 27.824C500.475 27.824 500.704 27.8007 500.919 27.754C501.143 27.698 501.325 27.614 501.465 27.502C501.614 27.3807 501.689 27.2267 501.689 27.04C501.689 26.7973 501.595 26.6107 501.409 26.48C501.222 26.3493 500.975 26.242 500.667 26.158C500.368 26.074 500.046 25.9853 499.701 25.892C499.393 25.808 499.085 25.7147 498.777 25.612C498.469 25.5093 498.189 25.3787 497.937 25.22C497.694 25.0613 497.493 24.856 497.335 24.604C497.185 24.352 497.111 24.0393 497.111 23.666C497.111 23.302 497.19 22.9847 497.349 22.714C497.507 22.4433 497.727 22.2193 498.007 22.042C498.287 21.8553 498.618 21.7153 499.001 21.622C499.383 21.5287 499.799 21.482 500.247 21.482C500.685 21.482 501.082 21.5287 501.437 21.622C501.801 21.7153 502.113 21.8507 502.375 22.028C502.645 22.196 502.851 22.406 502.991 22.658C503.14 22.9007 503.215 23.1713 503.215 23.47C503.215 23.5353 503.21 23.6007 503.201 23.666C503.201 23.7313 503.201 23.7687 503.201 23.778H501.535V23.68C501.535 23.5027 501.479 23.3533 501.367 23.232C501.264 23.1013 501.11 22.9987 500.905 22.924C500.709 22.8493 500.461 22.812 500.163 22.812C499.939 22.812 499.743 22.8307 499.575 22.868C499.407 22.9053 499.267 22.9567 499.155 23.022C499.052 23.0873 498.973 23.162 498.917 23.246C498.861 23.33 498.833 23.4233 498.833 23.526C498.833 23.7033 498.903 23.8433 499.043 23.946C499.183 24.0487 499.369 24.1373 499.603 24.212C499.845 24.2867 500.107 24.366 500.387 24.45C500.723 24.5433 501.068 24.6413 501.423 24.744C501.777 24.8373 502.104 24.9587 502.403 25.108C502.711 25.2573 502.958 25.4673 503.145 25.738C503.331 26.0087 503.425 26.368 503.425 26.816C503.425 27.2453 503.341 27.614 503.173 27.922C503.014 28.2207 502.785 28.4633 502.487 28.65C502.197 28.8273 501.852 28.958 501.451 29.042C501.059 29.126 500.629 29.168 500.163 29.168Z" fill="#CBD5E1"/>
<path d="M600.127 29V19.396H601.947V29H600.127ZM603.924 29V21.636H605.352L605.492 22.616H605.59C605.758 22.392 605.954 22.196 606.178 22.028C606.411 21.8507 606.672 21.7153 606.962 21.622C607.26 21.5193 607.587 21.468 607.942 21.468C608.408 21.468 608.819 21.552 609.174 21.72C609.538 21.888 609.822 22.1587 610.028 22.532C610.233 22.9053 610.336 23.4047 610.336 24.03V29H608.614V24.338C608.614 24.0767 608.581 23.862 608.516 23.694C608.46 23.5167 608.371 23.3767 608.25 23.274C608.138 23.162 607.998 23.0827 607.83 23.036C607.662 22.9893 607.475 22.966 607.27 22.966C606.962 22.966 606.682 23.0407 606.43 23.19C606.187 23.3393 605.991 23.5447 605.842 23.806C605.702 24.0673 605.632 24.3707 605.632 24.716V29H603.924ZM614.045 29.168C613.588 29.168 613.229 29.0793 612.967 28.902C612.706 28.7153 612.519 28.482 612.407 28.202C612.305 27.9127 612.253 27.6187 612.253 27.32V23.036H611.371V21.636H612.295L612.603 19.578H613.961V21.636H615.235V23.036H613.961V27.152C613.961 27.348 614.013 27.502 614.115 27.614C614.218 27.7167 614.372 27.768 614.577 27.768H615.235V28.944C615.142 28.9813 615.025 29.014 614.885 29.042C614.755 29.0793 614.615 29.1073 614.465 29.126C614.316 29.154 614.176 29.168 614.045 29.168ZM619.666 29.168C618.882 29.168 618.228 29.0327 617.706 28.762C617.183 28.482 616.791 28.0573 616.53 27.488C616.268 26.9187 616.138 26.1953 616.138 25.318C616.138 24.4313 616.268 23.708 616.53 23.148C616.791 22.5787 617.183 22.1587 617.706 21.888C618.228 21.608 618.882 21.468 619.666 21.468C620.375 21.468 620.968 21.6033 621.444 21.874C621.929 22.1353 622.293 22.5413 622.536 23.092C622.778 23.6427 622.9 24.3567 622.9 25.234V25.738H617.888C617.906 26.1953 617.976 26.5827 618.098 26.9C618.219 27.208 618.406 27.4413 618.658 27.6C618.919 27.7493 619.26 27.824 619.68 27.824C619.894 27.824 620.095 27.796 620.282 27.74C620.468 27.684 620.632 27.6 620.772 27.488C620.912 27.3667 621.019 27.2173 621.094 27.04C621.178 26.8627 621.22 26.6573 621.22 26.424H622.9C622.9 26.8907 622.816 27.2967 622.648 27.642C622.489 27.9873 622.26 28.272 621.962 28.496C621.672 28.72 621.332 28.888 620.94 29C620.548 29.112 620.123 29.168 619.666 29.168ZM617.916 24.534H621.122C621.122 24.226 621.084 23.9647 621.01 23.75C620.944 23.5353 620.846 23.358 620.716 23.218C620.594 23.078 620.445 22.98 620.268 22.924C620.09 22.8587 619.89 22.826 619.666 22.826C619.302 22.826 618.994 22.8867 618.742 23.008C618.499 23.1293 618.312 23.316 618.182 23.568C618.051 23.82 617.962 24.142 617.916 24.534ZM624.349 29V21.636H625.777L625.917 22.798H626.015C626.109 22.5647 626.221 22.35 626.351 22.154C626.491 21.9487 626.669 21.7853 626.883 21.664C627.098 21.5333 627.359 21.468 627.667 21.468C627.817 21.468 627.952 21.482 628.073 21.51C628.204 21.538 628.302 21.566 628.367 21.594V23.204H627.849C627.56 23.204 627.303 23.246 627.079 23.33C626.855 23.4047 626.664 23.526 626.505 23.694C626.356 23.862 626.244 24.072 626.169 24.324C626.095 24.576 626.057 24.87 626.057 25.206V29H624.349ZM629.422 29V21.636H630.85L630.99 22.616H631.088C631.256 22.392 631.452 22.196 631.676 22.028C631.909 21.8507 632.17 21.7153 632.46 21.622C632.758 21.5193 633.085 21.468 633.44 21.468C633.906 21.468 634.317 21.552 634.672 21.72C635.036 21.888 635.32 22.1587 635.526 22.532C635.731 22.9053 635.834 23.4047 635.834 24.03V29H634.112V24.338C634.112 24.0767 634.079 23.862 634.014 23.694C633.958 23.5167 633.869 23.3767 633.748 23.274C633.636 23.162 633.496 23.0827 633.328 23.036C633.16 22.9893 632.973 22.966 632.768 22.966C632.46 22.966 632.18 23.0407 631.928 23.19C631.685 23.3393 631.489 23.5447 631.34 23.806C631.2 24.0673 631.13 24.3707 631.13 24.716V29H629.422ZM640.762 29.168C639.978 29.168 639.324 29.0327 638.802 28.762C638.279 28.482 637.887 28.0573 637.626 27.488C637.364 26.9187 637.234 26.1953 637.234 25.318C637.234 24.4313 637.364 23.708 637.626 23.148C637.887 22.5787 638.279 22.1587 638.802 21.888C639.324 21.608 639.978 21.468 640.762 21.468C641.471 21.468 642.064 21.6033 642.54 21.874C643.025 22.1353 643.389 22.5413 643.632 23.092C643.874 23.6427 643.996 24.3567 643.996 25.234V25.738H638.984C639.002 26.1953 639.072 26.5827 639.194 26.9C639.315 27.208 639.502 27.4413 639.754 27.6C640.015 27.7493 640.356 27.824 640.776 27.824C640.99 27.824 641.191 27.796 641.378 27.74C641.564 27.684 641.728 27.6 641.868 27.488C642.008 27.3667 642.115 27.2173 642.19 27.04C642.274 26.8627 642.316 26.6573 642.316 26.424H643.996C643.996 26.8907 643.912 27.2967 643.744 27.642C643.585 27.9873 643.356 28.272 643.058 28.496C642.768 28.72 642.428 28.888 642.036 29C641.644 29.112 641.219 29.168 640.762 29.168ZM639.012 24.534H642.218C642.218 24.226 642.18 23.9647 642.106 23.75C642.04 23.5353 641.942 23.358 641.812 23.218C641.69 23.078 641.541 22.98 641.364 22.924C641.186 22.8587 640.986 22.826 640.762 22.826C640.398 22.826 640.09 22.8867 639.838 23.008C639.595 23.1293 639.408 23.316 639.278 23.568C639.147 23.82 639.058 24.142 639.012 24.534ZM647.391 29.168C646.934 29.168 646.574 29.0793 646.313 28.902C646.052 28.7153 645.865 28.482 645.753 28.202C645.65 27.9127 645.599 27.6187 645.599 27.32V23.036H644.717V21.636H645.641L645.949 19.578H647.307V21.636H648.581V23.036H647.307V27.152C647.307 27.348 647.358 27.502 647.461 27.614C647.564 27.7167 647.718 27.768 647.923 27.768H648.581V28.944C648.488 28.9813 648.371 29.014 648.231 29.042C648.1 29.0793 647.96 29.1073 647.811 29.126C647.662 29.154 647.522 29.168 647.391 29.168Z" fill="#CBD5E1"/>
<path d="M747.937 29L744.437 19.396H746.411L748.693 26.004C748.73 26.0973 748.768 26.2047 748.805 26.326C748.842 26.4473 748.88 26.564 748.917 26.676C748.954 26.7787 748.987 26.872 749.015 26.956H749.085C749.113 26.8813 749.141 26.7927 749.169 26.69C749.206 26.5873 749.244 26.48 749.281 26.368C749.318 26.2467 749.356 26.13 749.393 26.018L751.661 19.396H753.551L750.051 29H747.937ZM757.066 29.168C756.282 29.168 755.629 29.0327 755.106 28.762C754.584 28.482 754.192 28.0573 753.93 27.488C753.669 26.9187 753.538 26.1953 753.538 25.318C753.538 24.4313 753.669 23.708 753.93 23.148C754.192 22.5787 754.584 22.1587 755.106 21.888C755.629 21.608 756.282 21.468 757.066 21.468C757.776 21.468 758.368 21.6033 758.844 21.874C759.33 22.1353 759.694 22.5413 759.936 23.092C760.179 23.6427 760.3 24.3567 760.3 25.234V25.738H755.288C755.307 26.1953 755.377 26.5827 755.498 26.9C755.62 27.208 755.806 27.4413 756.058 27.6C756.32 27.7493 756.66 27.824 757.08 27.824C757.295 27.824 757.496 27.796 757.682 27.74C757.869 27.684 758.032 27.6 758.172 27.488C758.312 27.3667 758.42 27.2173 758.494 27.04C758.578 26.8627 758.62 26.6573 758.62 26.424H760.3C760.3 26.8907 760.216 27.2967 760.048 27.642C759.89 27.9873 759.661 28.272 759.362 28.496C759.073 28.72 758.732 28.888 758.34 29C757.948 29.112 757.524 29.168 757.066 29.168ZM755.316 24.534H758.522C758.522 24.226 758.485 23.9647 758.41 23.75C758.345 23.5353 758.247 23.358 758.116 23.218C757.995 23.078 757.846 22.98 757.668 22.924C757.491 22.8587 757.29 22.826 757.066 22.826C756.702 22.826 756.394 22.8867 756.142 23.008C755.9 23.1293 755.713 23.316 755.582 23.568C755.452 23.82 755.363 24.142 755.316 24.534ZM764.62 29.168C764.088 29.168 763.621 29.112 763.22 29C762.819 28.8787 762.483 28.7153 762.212 28.51C761.941 28.3047 761.736 28.0667 761.596 27.796C761.465 27.516 761.4 27.2127 761.4 26.886C761.4 26.8393 761.4 26.7973 761.4 26.76C761.409 26.7227 761.414 26.6947 761.414 26.676H763.094C763.094 26.6947 763.094 26.7133 763.094 26.732C763.094 26.7507 763.094 26.7693 763.094 26.788C763.103 27.04 763.183 27.2453 763.332 27.404C763.481 27.5533 763.677 27.6607 763.92 27.726C764.163 27.7913 764.419 27.824 764.69 27.824C764.933 27.824 765.161 27.8007 765.376 27.754C765.6 27.698 765.782 27.614 765.922 27.502C766.071 27.3807 766.146 27.2267 766.146 27.04C766.146 26.7973 766.053 26.6107 765.866 26.48C765.679 26.3493 765.432 26.242 765.124 26.158C764.825 26.074 764.503 25.9853 764.158 25.892C763.85 25.808 763.542 25.7147 763.234 25.612C762.926 25.5093 762.646 25.3787 762.394 25.22C762.151 25.0613 761.951 24.856 761.792 24.604C761.643 24.352 761.568 24.0393 761.568 23.666C761.568 23.302 761.647 22.9847 761.806 22.714C761.965 22.4433 762.184 22.2193 762.464 22.042C762.744 21.8553 763.075 21.7153 763.458 21.622C763.841 21.5287 764.256 21.482 764.704 21.482C765.143 21.482 765.539 21.5287 765.894 21.622C766.258 21.7153 766.571 21.8507 766.832 22.028C767.103 22.196 767.308 22.406 767.448 22.658C767.597 22.9007 767.672 23.1713 767.672 23.47C767.672 23.5353 767.667 23.6007 767.658 23.666C767.658 23.7313 767.658 23.7687 767.658 23.778H765.992V23.68C765.992 23.5027 765.936 23.3533 765.824 23.232C765.721 23.1013 765.567 22.9987 765.362 22.924C765.166 22.8493 764.919 22.812 764.62 22.812C764.396 22.812 764.2 22.8307 764.032 22.868C763.864 22.9053 763.724 22.9567 763.612 23.022C763.509 23.0873 763.43 23.162 763.374 23.246C763.318 23.33 763.29 23.4233 763.29 23.526C763.29 23.7033 763.36 23.8433 763.5 23.946C763.64 24.0487 763.827 24.1373 764.06 24.212C764.303 24.2867 764.564 24.366 764.844 24.45C765.18 24.5433 765.525 24.6413 765.88 24.744C766.235 24.8373 766.561 24.9587 766.86 25.108C767.168 25.2573 767.415 25.4673 767.602 25.738C767.789 26.0087 767.882 26.368 767.882 26.816C767.882 27.2453 767.798 27.614 767.63 27.922C767.471 28.2207 767.243 28.4633 766.944 28.65C766.655 28.8273 766.309 28.958 765.908 29.042C765.516 29.126 765.087 29.168 764.62 29.168ZM771.27 29.168C770.813 29.168 770.453 29.0793 770.192 28.902C769.931 28.7153 769.744 28.482 769.632 28.202C769.529 27.9127 769.478 27.6187 769.478 27.32V23.036H768.596V21.636H769.52L769.828 19.578H771.186V21.636H772.46V23.036H771.186V27.152C771.186 27.348 771.237 27.502 771.34 27.614C771.443 27.7167 771.597 27.768 771.802 27.768H772.46V28.944C772.367 28.9813 772.25 29.014 772.11 29.042C771.979 29.0793 771.839 29.1073 771.69 29.126C771.541 29.154 771.401 29.168 771.27 29.168ZM773.726 29V21.636H775.434V29H773.726ZM773.656 20.726L774.79 18.878H776.568L776.582 18.92L775.07 20.726H773.656ZM779.144 29L776.414 21.636H778.206L779.396 24.954C779.452 25.1127 779.517 25.3273 779.592 25.598C779.676 25.8593 779.76 26.1347 779.844 26.424C779.928 26.704 779.998 26.9607 780.054 27.194H780.124C780.18 26.9793 780.245 26.732 780.32 26.452C780.394 26.172 780.469 25.8967 780.544 25.626C780.628 25.3553 780.702 25.1313 780.768 24.954L781.944 21.636H783.68L780.936 29H779.144ZM787.828 29.168C787.044 29.168 786.391 29.0327 785.868 28.762C785.345 28.482 784.953 28.0573 784.692 27.488C784.431 26.9187 784.3 26.1953 784.3 25.318C784.3 24.4313 784.431 23.708 784.692 23.148C784.953 22.5787 785.345 22.1587 785.868 21.888C786.391 21.608 787.044 21.468 787.828 21.468C788.537 21.468 789.13 21.6033 789.606 21.874C790.091 22.1353 790.455 22.5413 790.698 23.092C790.941 23.6427 791.062 24.3567 791.062 25.234V25.738H786.05C786.069 26.1953 786.139 26.5827 786.26 26.9C786.381 27.208 786.568 27.4413 786.82 27.6C787.081 27.7493 787.422 27.824 787.842 27.824C788.057 27.824 788.257 27.796 788.444 27.74C788.631 27.684 788.794 27.6 788.934 27.488C789.074 27.3667 789.181 27.2173 789.256 27.04C789.34 26.8627 789.382 26.6573 789.382 26.424H791.062C791.062 26.8907 790.978 27.2967 790.81 27.642C790.651 27.9873 790.423 28.272 790.124 28.496C789.835 28.72 789.494 28.888 789.102 29C788.71 29.112 788.285 29.168 787.828 29.168ZM786.078 24.534H789.284C789.284 24.226 789.247 23.9647 789.172 23.75C789.107 23.5353 789.009 23.358 788.878 23.218C788.757 23.078 788.607 22.98 788.43 22.924C788.253 22.8587 788.052 22.826 787.828 22.826C787.464 22.826 787.156 22.8867 786.904 23.008C786.661 23.1293 786.475 23.316 786.344 23.568C786.213 23.82 786.125 24.142 786.078 24.534ZM792.512 20.502V18.878H794.22V20.502H792.512ZM792.512 29V21.636H794.22V29H792.512ZM798.909 29.168C798.377 29.168 797.91 29.112 797.509 29C797.108 28.8787 796.772 28.7153 796.501 28.51C796.23 28.3047 796.025 28.0667 795.885 27.796C795.754 27.516 795.689 27.2127 795.689 26.886C795.689 26.8393 795.689 26.7973 795.689 26.76C795.698 26.7227 795.703 26.6947 795.703 26.676H797.383C797.383 26.6947 797.383 26.7133 797.383 26.732C797.383 26.7507 797.383 26.7693 797.383 26.788C797.392 27.04 797.472 27.2453 797.621 27.404C797.77 27.5533 797.966 27.6607 798.209 27.726C798.452 27.7913 798.708 27.824 798.979 27.824C799.222 27.824 799.45 27.8007 799.665 27.754C799.889 27.698 800.071 27.614 800.211 27.502C800.36 27.3807 800.435 27.2267 800.435 27.04C800.435 26.7973 800.342 26.6107 800.155 26.48C799.968 26.3493 799.721 26.242 799.413 26.158C799.114 26.074 798.792 25.9853 798.447 25.892C798.139 25.808 797.831 25.7147 797.523 25.612C797.215 25.5093 796.935 25.3787 796.683 25.22C796.44 25.0613 796.24 24.856 796.081 24.604C795.932 24.352 795.857 24.0393 795.857 23.666C795.857 23.302 795.936 22.9847 796.095 22.714C796.254 22.4433 796.473 22.2193 796.753 22.042C797.033 21.8553 797.364 21.7153 797.747 21.622C798.13 21.5287 798.545 21.482 798.993 21.482C799.432 21.482 799.828 21.5287 800.183 21.622C800.547 21.7153 800.86 21.8507 801.121 22.028C801.392 22.196 801.597 22.406 801.737 22.658C801.886 22.9007 801.961 23.1713 801.961 23.47C801.961 23.5353 801.956 23.6007 801.947 23.666C801.947 23.7313 801.947 23.7687 801.947 23.778H800.281V23.68C800.281 23.5027 800.225 23.3533 800.113 23.232C800.01 23.1013 799.856 22.9987 799.651 22.924C799.455 22.8493 799.208 22.812 798.909 22.812C798.685 22.812 798.489 22.8307 798.321 22.868C798.153 22.9053 798.013 22.9567 797.901 23.022C797.798 23.0873 797.719 23.162 797.663 23.246C797.607 23.33 797.579 23.4233 797.579 23.526C797.579 23.7033 797.649 23.8433 797.789 23.946C797.929 24.0487 798.116 24.1373 798.349 24.212C798.592 24.2867 798.853 24.366 799.133 24.45C799.469 24.5433 799.814 24.6413 800.169 24.744C800.524 24.8373 800.85 24.9587 801.149 25.108C801.457 25.2573 801.704 25.4673 801.891 25.738C802.078 26.0087 802.171 26.368 802.171 26.816C802.171 27.2453 802.087 27.614 801.919 27.922C801.76 28.2207 801.532 28.4633 801.233 28.65C800.944 28.8273 800.598 28.958 800.197 29.042C799.805 29.126 799.376 29.168 798.909 29.168Z" fill="#CBD5E1"/>
<path d="M899.134 29V19.396H904.188C904.898 19.396 905.486 19.5173 905.952 19.76C906.419 20.0027 906.769 20.348 907.002 20.796C907.236 21.244 907.352 21.7713 907.352 22.378C907.352 23.0033 907.212 23.5587 906.932 24.044C906.652 24.52 906.242 24.8793 905.7 25.122L907.688 29H905.7L903.936 25.43H900.954V29H899.134ZM900.954 23.904H904.048C904.515 23.904 904.874 23.7687 905.126 23.498C905.378 23.2273 905.504 22.854 905.504 22.378C905.504 22.07 905.448 21.8133 905.336 21.608C905.224 21.3933 905.061 21.23 904.846 21.118C904.632 21.006 904.366 20.95 904.048 20.95H900.954V23.904ZM912.043 29.168C911.259 29.168 910.605 29.0327 910.083 28.762C909.56 28.482 909.168 28.0573 908.907 27.488C908.645 26.9187 908.515 26.1953 908.515 25.318C908.515 24.4313 908.645 23.708 908.907 23.148C909.168 22.5787 909.56 22.1587 910.083 21.888C910.605 21.608 911.259 21.468 912.043 21.468C912.752 21.468 913.345 21.6033 913.821 21.874C914.306 22.1353 914.67 22.5413 914.913 23.092C915.155 23.6427 915.277 24.3567 915.277 25.234V25.738H910.265C910.283 26.1953 910.353 26.5827 910.475 26.9C910.596 27.208 910.783 27.4413 911.035 27.6C911.296 27.7493 911.637 27.824 912.057 27.824C912.271 27.824 912.472 27.796 912.659 27.74C912.845 27.684 913.009 27.6 913.149 27.488C913.289 27.3667 913.396 27.2173 913.471 27.04C913.555 26.8627 913.597 26.6573 913.597 26.424H915.277C915.277 26.8907 915.193 27.2967 915.025 27.642C914.866 27.9873 914.637 28.272 914.339 28.496C914.049 28.72 913.709 28.888 913.317 29C912.925 29.112 912.5 29.168 912.043 29.168ZM910.293 24.534H913.499C913.499 24.226 913.461 23.9647 913.387 23.75C913.321 23.5353 913.223 23.358 913.093 23.218C912.971 23.078 912.822 22.98 912.645 22.924C912.467 22.8587 912.267 22.826 912.043 22.826C911.679 22.826 911.371 22.8867 911.119 23.008C910.876 23.1293 910.689 23.316 910.559 23.568C910.428 23.82 910.339 24.142 910.293 24.534ZM918.616 29.168C918.411 29.168 918.173 29.14 917.902 29.084C917.641 29.0373 917.384 28.944 917.132 28.804C916.89 28.664 916.689 28.4587 916.53 28.188C916.372 27.908 916.292 27.544 916.292 27.096C916.292 26.592 916.404 26.1767 916.628 25.85C916.852 25.514 917.165 25.2527 917.566 25.066C917.977 24.87 918.462 24.7347 919.022 24.66C919.592 24.576 920.212 24.534 920.884 24.534V23.932C920.884 23.7173 920.852 23.526 920.786 23.358C920.721 23.19 920.6 23.0593 920.422 22.966C920.254 22.8633 919.998 22.812 919.652 22.812C919.307 22.812 919.036 22.854 918.84 22.938C918.644 23.022 918.509 23.1247 918.434 23.246C918.36 23.3673 918.322 23.4933 918.322 23.624V23.82H916.67C916.661 23.7733 916.656 23.7267 916.656 23.68C916.656 23.6333 916.656 23.5773 916.656 23.512C916.656 23.092 916.782 22.728 917.034 22.42C917.286 22.112 917.636 21.8787 918.084 21.72C918.532 21.552 919.05 21.468 919.638 21.468C920.31 21.468 920.861 21.5613 921.29 21.748C921.729 21.9347 922.056 22.2007 922.27 22.546C922.485 22.8913 922.592 23.3113 922.592 23.806V27.278C922.592 27.4553 922.644 27.5813 922.746 27.656C922.849 27.7307 922.961 27.768 923.082 27.768H923.53V28.944C923.437 28.9813 923.302 29.0233 923.124 29.07C922.947 29.126 922.728 29.154 922.466 29.154C922.224 29.154 922.004 29.112 921.808 29.028C921.622 28.9533 921.463 28.8413 921.332 28.692C921.202 28.5427 921.108 28.3653 921.052 28.16H920.968C920.81 28.356 920.618 28.5333 920.394 28.692C920.18 28.8413 919.923 28.958 919.624 29.042C919.335 29.126 918.999 29.168 918.616 29.168ZM919.134 27.768C919.414 27.768 919.662 27.726 919.876 27.642C920.1 27.558 920.282 27.4413 920.422 27.292C920.572 27.1427 920.684 26.9607 920.758 26.746C920.842 26.5313 920.884 26.298 920.884 26.046V25.71C920.371 25.71 919.895 25.7427 919.456 25.808C919.027 25.8733 918.682 25.9947 918.42 26.172C918.168 26.3493 918.042 26.6013 918.042 26.928C918.042 27.096 918.08 27.2453 918.154 27.376C918.238 27.4973 918.36 27.5953 918.518 27.67C918.686 27.7353 918.892 27.768 919.134 27.768ZM924.506 29V18.878H926.214V29H924.506ZM928.033 20.502V18.878H929.741V20.502H928.033ZM928.033 29V21.636H929.741V29H928.033ZM934.122 29.168C933.525 29.168 933.007 29.0327 932.568 28.762C932.13 28.4913 931.789 28.0713 931.546 27.502C931.313 26.9327 931.196 26.2 931.196 25.304C931.196 24.4173 931.318 23.694 931.56 23.134C931.803 22.5647 932.139 22.1447 932.568 21.874C932.998 21.6033 933.483 21.468 934.024 21.468C934.36 21.468 934.668 21.5053 934.948 21.58C935.228 21.6547 935.476 21.7713 935.69 21.93C935.905 22.0793 936.087 22.266 936.236 22.49H936.32V18.878H938.028V29H936.614L936.474 28.02H936.376C936.143 28.4027 935.826 28.692 935.424 28.888C935.032 29.0747 934.598 29.168 934.122 29.168ZM934.654 27.698C935.046 27.698 935.364 27.6093 935.606 27.432C935.849 27.2547 936.026 26.998 936.138 26.662C936.26 26.326 936.32 25.9153 936.32 25.43V25.248C936.32 24.884 936.288 24.5573 936.222 24.268C936.157 23.9787 936.054 23.736 935.914 23.54C935.784 23.344 935.611 23.1947 935.396 23.092C935.191 22.9893 934.944 22.938 934.654 22.938C934.234 22.938 933.898 23.022 933.646 23.19C933.404 23.3487 933.226 23.6007 933.114 23.946C933.012 24.282 932.96 24.7113 932.96 25.234V25.43C932.96 25.9433 933.012 26.368 933.114 26.704C933.226 27.04 933.404 27.292 933.646 27.46C933.898 27.6187 934.234 27.698 934.654 27.698ZM941.736 29.168C941.53 29.168 941.292 29.14 941.022 29.084C940.76 29.0373 940.504 28.944 940.252 28.804C940.009 28.664 939.808 28.4587 939.65 28.188C939.491 27.908 939.412 27.544 939.412 27.096C939.412 26.592 939.524 26.1767 939.748 25.85C939.972 25.514 940.284 25.2527 940.686 25.066C941.096 24.87 941.582 24.7347 942.142 24.66C942.711 24.576 943.332 24.534 944.004 24.534V23.932C944.004 23.7173 943.971 23.526 943.906 23.358C943.84 23.19 943.719 23.0593 943.542 22.966C943.374 22.8633 943.117 22.812 942.772 22.812C942.426 22.812 942.156 22.854 941.96 22.938C941.764 23.022 941.628 23.1247 941.554 23.246C941.479 23.3673 941.442 23.4933 941.442 23.624V23.82H939.79C939.78 23.7733 939.776 23.7267 939.776 23.68C939.776 23.6333 939.776 23.5773 939.776 23.512C939.776 23.092 939.902 22.728 940.154 22.42C940.406 22.112 940.756 21.8787 941.204 21.72C941.652 21.552 942.17 21.468 942.758 21.468C943.43 21.468 943.98 21.5613 944.41 21.748C944.848 21.9347 945.175 22.2007 945.39 22.546C945.604 22.8913 945.712 23.3113 945.712 23.806V27.278C945.712 27.4553 945.763 27.5813 945.866 27.656C945.968 27.7307 946.08 27.768 946.202 27.768H946.65V28.944C946.556 28.9813 946.421 29.0233 946.244 29.07C946.066 29.126 945.847 29.154 945.586 29.154C945.343 29.154 945.124 29.112 944.928 29.028C944.741 28.9533 944.582 28.8413 944.452 28.692C944.321 28.5427 944.228 28.3653 944.172 28.16H944.088C943.929 28.356 943.738 28.5333 943.514 28.692C943.299 28.8413 943.042 28.958 942.744 29.042C942.454 29.126 942.118 29.168 941.736 29.168ZM942.254 27.768C942.534 27.768 942.781 27.726 942.996 27.642C943.22 27.558 943.402 27.4413 943.542 27.292C943.691 27.1427 943.803 26.9607 943.878 26.746C943.962 26.5313 944.004 26.298 944.004 26.046V25.71C943.49 25.71 943.014 25.7427 942.576 25.808C942.146 25.8733 941.801 25.9947 941.54 26.172C941.288 26.3493 941.162 26.6013 941.162 26.928C941.162 27.096 941.199 27.2453 941.274 27.376C941.358 27.4973 941.479 27.5953 941.638 27.67C941.806 27.7353 942.011 27.768 942.254 27.768ZM950.187 29.168C949.59 29.168 949.072 29.0327 948.633 28.762C948.194 28.4913 947.854 28.0713 947.611 27.502C947.378 26.9327 947.261 26.2 947.261 25.304C947.261 24.4173 947.382 23.694 947.625 23.134C947.868 22.5647 948.204 22.1447 948.633 21.874C949.062 21.6033 949.548 21.468 950.089 21.468C950.425 21.468 950.733 21.5053 951.013 21.58C951.293 21.6547 951.54 21.7713 951.755 21.93C951.97 22.0793 952.152 22.266 952.301 22.49H952.385V18.878H954.093V29H952.679L952.539 28.02H952.441C952.208 28.4027 951.89 28.692 951.489 28.888C951.097 29.0747 950.663 29.168 950.187 29.168ZM950.719 27.698C951.111 27.698 951.428 27.6093 951.671 27.432C951.914 27.2547 952.091 26.998 952.203 26.662C952.324 26.326 952.385 25.9153 952.385 25.43V25.248C952.385 24.884 952.352 24.5573 952.287 24.268C952.222 23.9787 952.119 23.736 951.979 23.54C951.848 23.344 951.676 23.1947 951.461 23.092C951.256 22.9893 951.008 22.938 950.719 22.938C950.299 22.938 949.963 23.022 949.711 23.19C949.468 23.3487 949.291 23.6007 949.179 23.946C949.076 24.282 949.025 24.7113 949.025 25.234V25.43C949.025 25.9433 949.076 26.368 949.179 26.704C949.291 27.04 949.468 27.292 949.711 27.46C949.963 27.6187 950.299 27.698 950.719 27.698ZM959.074 29.168C958.29 29.168 957.637 29.0327 957.114 28.762C956.591 28.482 956.199 28.0573 955.938 27.488C955.677 26.9187 955.546 26.1953 955.546 25.318C955.546 24.4313 955.677 23.708 955.938 23.148C956.199 22.5787 956.591 22.1587 957.114 21.888C957.637 21.608 958.29 21.468 959.074 21.468C959.783 21.468 960.376 21.6033 960.852 21.874C961.337 22.1353 961.701 22.5413 961.944 23.092C962.187 23.6427 962.308 24.3567 962.308 25.234V25.738H957.296C957.315 26.1953 957.385 26.5827 957.506 26.9C957.627 27.208 957.814 27.4413 958.066 27.6C958.327 27.7493 958.668 27.824 959.088 27.824C959.303 27.824 959.503 27.796 959.69 27.74C959.877 27.684 960.04 27.6 960.18 27.488C960.32 27.3667 960.427 27.2173 960.502 27.04C960.586 26.8627 960.628 26.6573 960.628 26.424H962.308C962.308 26.8907 962.224 27.2967 962.056 27.642C961.897 27.9873 961.669 28.272 961.37 28.496C961.081 28.72 960.74 28.888 960.348 29C959.956 29.112 959.531 29.168 959.074 29.168ZM957.324 24.534H960.53C960.53 24.226 960.493 23.9647 960.418 23.75C960.353 23.5353 960.255 23.358 960.124 23.218C960.003 23.078 959.853 22.98 959.676 22.924C959.499 22.8587 959.298 22.826 959.074 22.826C958.71 22.826 958.402 22.8867 958.15 23.008C957.907 23.1293 957.721 23.316 957.59 23.568C957.459 23.82 957.371 24.142 957.324 24.534ZM965.72 29L969.458 19.396H971.754L975.506 29H973.532L972.762 26.956H968.366L967.596 29H965.72ZM968.94 25.416H972.174L971.208 22.812C971.171 22.7187 971.124 22.602 971.068 22.462C971.022 22.3127 970.97 22.154 970.914 21.986C970.858 21.8087 970.802 21.6313 970.746 21.454C970.69 21.2767 970.639 21.118 970.592 20.978H970.522C970.466 21.1647 970.396 21.3793 970.312 21.622C970.238 21.8647 970.163 22.0933 970.088 22.308C970.014 22.5227 969.953 22.6907 969.906 22.812L968.94 25.416ZM978.687 29.168C977.978 29.168 977.399 28.9767 976.951 28.594C976.513 28.202 976.293 27.5393 976.293 26.606V21.636H978.001V26.298C978.001 26.5593 978.029 26.7787 978.085 26.956C978.151 27.124 978.239 27.264 978.351 27.376C978.473 27.4787 978.617 27.5533 978.785 27.6C978.953 27.6467 979.14 27.67 979.345 27.67C979.653 27.67 979.929 27.5953 980.171 27.446C980.423 27.2967 980.619 27.0913 980.759 26.83C980.909 26.5593 980.983 26.256 980.983 25.92V21.636H982.691V29H981.277L981.137 28.02H981.039C980.871 28.244 980.671 28.4447 980.437 28.622C980.213 28.79 979.952 28.9207 979.653 29.014C979.364 29.1167 979.042 29.168 978.687 29.168ZM984.512 29V21.636H985.94L986.08 22.616H986.178C986.336 22.392 986.518 22.196 986.724 22.028C986.929 21.8507 987.162 21.7153 987.424 21.622C987.694 21.5193 987.988 21.468 988.306 21.468C988.735 21.468 989.118 21.5567 989.454 21.734C989.79 21.9113 990.051 22.2053 990.238 22.616H990.336C990.494 22.392 990.681 22.196 990.896 22.028C991.11 21.8507 991.358 21.7153 991.638 21.622C991.918 21.5193 992.221 21.468 992.548 21.468C992.986 21.468 993.374 21.5473 993.71 21.706C994.046 21.8647 994.312 22.126 994.508 22.49C994.704 22.854 994.802 23.3393 994.802 23.946V29H993.094V24.296C993.094 24.044 993.066 23.834 993.01 23.666C992.954 23.4887 992.874 23.3533 992.772 23.26C992.678 23.1573 992.557 23.0827 992.408 23.036C992.268 22.9893 992.114 22.966 991.946 22.966C991.675 22.966 991.432 23.0407 991.218 23.19C991.003 23.3393 990.83 23.5447 990.7 23.806C990.578 24.0673 990.518 24.3707 990.518 24.716V29H988.81V24.296C988.81 24.044 988.782 23.834 988.726 23.666C988.67 23.4887 988.59 23.3533 988.488 23.26C988.394 23.1573 988.273 23.0827 988.124 23.036C987.984 22.9893 987.83 22.966 987.662 22.966C987.391 22.966 987.144 23.0407 986.92 23.19C986.705 23.3393 986.532 23.5447 986.402 23.806C986.28 24.0673 986.22 24.3707 986.22 24.716V29H984.512ZM999.734 29.168C998.95 29.168 998.297 29.0327 997.774 28.762C997.251 28.482 996.859 28.0573 996.598 27.488C996.337 26.9187 996.206 26.1953 996.206 25.318C996.206 24.4313 996.337 23.708 996.598 23.148C996.859 22.5787 997.251 22.1587 997.774 21.888C998.297 21.608 998.95 21.468 999.734 21.468C1000.44 21.468 1001.04 21.6033 1001.51 21.874C1002 22.1353 1002.36 22.5413 1002.6 23.092C1002.85 23.6427 1002.97 24.3567 1002.97 25.234V25.738H997.956C997.975 26.1953 998.045 26.5827 998.166 26.9C998.287 27.208 998.474 27.4413 998.726 27.6C998.987 27.7493 999.328 27.824 999.748 27.824C999.963 27.824 1000.16 27.796 1000.35 27.74C1000.54 27.684 1000.7 27.6 1000.84 27.488C1000.98 27.3667 1001.09 27.2173 1001.16 27.04C1001.25 26.8627 1001.29 26.6573 1001.29 26.424H1002.97C1002.97 26.8907 1002.88 27.2967 1002.72 27.642C1002.56 27.9873 1002.33 28.272 1002.03 28.496C1001.74 28.72 1001.4 28.888 1001.01 29C1000.62 29.112 1000.19 29.168 999.734 29.168ZM997.984 24.534H1001.19C1001.19 24.226 1001.15 23.9647 1001.08 23.75C1001.01 23.5353 1000.91 23.358 1000.78 23.218C1000.66 23.078 1000.51 22.98 1000.34 22.924C1000.16 22.8587 999.958 22.826 999.734 22.826C999.37 22.826 999.062 22.8867 998.81 23.008C998.567 23.1293 998.381 23.316 998.25 23.568C998.119 23.82 998.031 24.142 997.984 24.534ZM1004.42 29V21.636H1005.85L1005.99 22.616H1006.08C1006.25 22.392 1006.45 22.196 1006.67 22.028C1006.91 21.8507 1007.17 21.7153 1007.46 21.622C1007.75 21.5193 1008.08 21.468 1008.44 21.468C1008.9 21.468 1009.31 21.552 1009.67 21.72C1010.03 21.888 1010.32 22.1587 1010.52 22.532C1010.73 22.9053 1010.83 23.4047 1010.83 24.03V29H1009.11V24.338C1009.11 24.0767 1009.08 23.862 1009.01 23.694C1008.95 23.5167 1008.87 23.3767 1008.74 23.274C1008.63 23.162 1008.49 23.0827 1008.32 23.036C1008.16 22.9893 1007.97 22.966 1007.76 22.966C1007.46 22.966 1007.18 23.0407 1006.92 23.19C1006.68 23.3393 1006.49 23.5447 1006.34 23.806C1006.2 24.0673 1006.13 24.3707 1006.13 24.716V29H1004.42ZM1014.54 29.168C1014.08 29.168 1013.72 29.0793 1013.46 28.902C1013.2 28.7153 1013.01 28.482 1012.9 28.202C1012.8 27.9127 1012.75 27.6187 1012.75 27.32V23.036H1011.87V21.636H1012.79L1013.1 19.578H1014.46V21.636H1015.73V23.036H1014.46V27.152C1014.46 27.348 1014.51 27.502 1014.61 27.614C1014.71 27.7167 1014.87 27.768 1015.07 27.768H1015.73V28.944C1015.64 28.9813 1015.52 29.014 1015.38 29.042C1015.25 29.0793 1015.11 29.1073 1014.96 29.126C1014.81 29.154 1014.67 29.168 1014.54 29.168ZM1018.89 29.168C1018.68 29.168 1018.44 29.14 1018.17 29.084C1017.91 29.0373 1017.65 28.944 1017.4 28.804C1017.16 28.664 1016.96 28.4587 1016.8 28.188C1016.64 27.908 1016.56 27.544 1016.56 27.096C1016.56 26.592 1016.67 26.1767 1016.9 25.85C1017.12 25.514 1017.43 25.2527 1017.84 25.066C1018.25 24.87 1018.73 24.7347 1019.29 24.66C1019.86 24.576 1020.48 24.534 1021.15 24.534V23.932C1021.15 23.7173 1021.12 23.526 1021.06 23.358C1020.99 23.19 1020.87 23.0593 1020.69 22.966C1020.52 22.8633 1020.27 22.812 1019.92 22.812C1019.58 22.812 1019.31 22.854 1019.11 22.938C1018.91 23.022 1018.78 23.1247 1018.7 23.246C1018.63 23.3673 1018.59 23.4933 1018.59 23.624V23.82H1016.94C1016.93 23.7733 1016.93 23.7267 1016.93 23.68C1016.93 23.6333 1016.93 23.5773 1016.93 23.512C1016.93 23.092 1017.05 22.728 1017.3 22.42C1017.56 22.112 1017.91 21.8787 1018.35 21.72C1018.8 21.552 1019.32 21.468 1019.91 21.468C1020.58 21.468 1021.13 21.5613 1021.56 21.748C1022 21.9347 1022.33 22.2007 1022.54 22.546C1022.75 22.8913 1022.86 23.3113 1022.86 23.806V27.278C1022.86 27.4553 1022.91 27.5813 1023.02 27.656C1023.12 27.7307 1023.23 27.768 1023.35 27.768H1023.8V28.944C1023.71 28.9813 1023.57 29.0233 1023.39 29.07C1023.22 29.126 1023 29.154 1022.74 29.154C1022.49 29.154 1022.27 29.112 1022.08 29.028C1021.89 28.9533 1021.73 28.8413 1021.6 28.692C1021.47 28.5427 1021.38 28.3653 1021.32 28.16H1021.24C1021.08 28.356 1020.89 28.5333 1020.66 28.692C1020.45 28.8413 1020.19 28.958 1019.89 29.042C1019.6 29.126 1019.27 29.168 1018.89 29.168ZM1019.4 27.768C1019.68 27.768 1019.93 27.726 1020.15 27.642C1020.37 27.558 1020.55 27.4413 1020.69 27.292C1020.84 27.1427 1020.95 26.9607 1021.03 26.746C1021.11 26.5313 1021.15 26.298 1021.15 26.046V25.71C1020.64 25.71 1020.16 25.7427 1019.73 25.808C1019.3 25.8733 1018.95 25.9947 1018.69 26.172C1018.44 26.3493 1018.31 26.6013 1018.31 26.928C1018.31 27.096 1018.35 27.2453 1018.42 27.376C1018.51 27.4973 1018.63 27.5953 1018.79 27.67C1018.96 27.7353 1019.16 27.768 1019.4 27.768ZM1027.34 29.168C1026.74 29.168 1026.22 29.0327 1025.78 28.762C1025.34 28.4913 1025 28.0713 1024.76 27.502C1024.53 26.9327 1024.41 26.2 1024.41 25.304C1024.41 24.4173 1024.53 23.694 1024.78 23.134C1025.02 22.5647 1025.35 22.1447 1025.78 21.874C1026.21 21.6033 1026.7 21.468 1027.24 21.468C1027.58 21.468 1027.88 21.5053 1028.16 21.58C1028.44 21.6547 1028.69 21.7713 1028.91 21.93C1029.12 22.0793 1029.3 22.266 1029.45 22.49H1029.54V18.878H1031.24V29H1029.83L1029.69 28.02H1029.59C1029.36 28.4027 1029.04 28.692 1028.64 28.888C1028.25 29.0747 1027.81 29.168 1027.34 29.168ZM1027.87 27.698C1028.26 27.698 1028.58 27.6093 1028.82 27.432C1029.06 27.2547 1029.24 26.998 1029.35 26.662C1029.47 26.326 1029.54 25.9153 1029.54 25.43V25.248C1029.54 24.884 1029.5 24.5573 1029.44 24.268C1029.37 23.9787 1029.27 23.736 1029.13 23.54C1029 23.344 1028.83 23.1947 1028.61 23.092C1028.41 22.9893 1028.16 22.938 1027.87 22.938C1027.45 22.938 1027.11 23.022 1026.86 23.19C1026.62 23.3487 1026.44 23.6007 1026.33 23.946C1026.23 24.282 1026.18 24.7113 1026.18 25.234V25.43C1026.18 25.9433 1026.23 26.368 1026.33 26.704C1026.44 27.04 1026.62 27.292 1026.86 27.46C1027.11 27.6187 1027.45 27.698 1027.87 27.698ZM1034.95 29.168C1034.75 29.168 1034.51 29.14 1034.24 29.084C1033.98 29.0373 1033.72 28.944 1033.47 28.804C1033.22 28.664 1033.02 28.4587 1032.86 28.188C1032.71 27.908 1032.63 27.544 1032.63 27.096C1032.63 26.592 1032.74 26.1767 1032.96 25.85C1033.19 25.514 1033.5 25.2527 1033.9 25.066C1034.31 24.87 1034.8 24.7347 1035.36 24.66C1035.93 24.576 1036.55 24.534 1037.22 24.534V23.932C1037.22 23.7173 1037.19 23.526 1037.12 23.358C1037.06 23.19 1036.93 23.0593 1036.76 22.966C1036.59 22.8633 1036.33 22.812 1035.99 22.812C1035.64 22.812 1035.37 22.854 1035.17 22.938C1034.98 23.022 1034.84 23.1247 1034.77 23.246C1034.69 23.3673 1034.66 23.4933 1034.66 23.624V23.82H1033C1033 23.7733 1032.99 23.7267 1032.99 23.68C1032.99 23.6333 1032.99 23.5773 1032.99 23.512C1032.99 23.092 1033.12 22.728 1033.37 22.42C1033.62 22.112 1033.97 21.8787 1034.42 21.72C1034.87 21.552 1035.38 21.468 1035.97 21.468C1036.64 21.468 1037.2 21.5613 1037.62 21.748C1038.06 21.9347 1038.39 22.2007 1038.6 22.546C1038.82 22.8913 1038.93 23.3113 1038.93 23.806V27.278C1038.93 27.4553 1038.98 27.5813 1039.08 27.656C1039.18 27.7307 1039.3 27.768 1039.42 27.768H1039.86V28.944C1039.77 28.9813 1039.64 29.0233 1039.46 29.07C1039.28 29.126 1039.06 29.154 1038.8 29.154C1038.56 29.154 1038.34 29.112 1038.14 29.028C1037.96 28.9533 1037.8 28.8413 1037.67 28.692C1037.54 28.5427 1037.44 28.3653 1037.39 28.16H1037.3C1037.14 28.356 1036.95 28.5333 1036.73 28.692C1036.51 28.8413 1036.26 28.958 1035.96 29.042C1035.67 29.126 1035.33 29.168 1034.95 29.168ZM1035.47 27.768C1035.75 27.768 1036 27.726 1036.21 27.642C1036.43 27.558 1036.62 27.4413 1036.76 27.292C1036.91 27.1427 1037.02 26.9607 1037.09 26.746C1037.18 26.5313 1037.22 26.298 1037.22 26.046V25.71C1036.71 25.71 1036.23 25.7427 1035.79 25.808C1035.36 25.8733 1035.02 25.9947 1034.75 26.172C1034.5 26.3493 1034.38 26.6013 1034.38 26.928C1034.38 27.096 1034.41 27.2453 1034.49 27.376C1034.57 27.4973 1034.69 27.5953 1034.85 27.67C1035.02 27.7353 1035.23 27.768 1035.47 27.768Z" fill="#CBD5E1"/>
<path d="M1136.44 29V19.396H1141.49C1142.2 19.396 1142.79 19.5173 1143.26 19.76C1143.73 20.0027 1144.08 20.348 1144.31 20.796C1144.54 21.244 1144.66 21.7713 1144.66 22.378C1144.66 23.0033 1144.52 23.5587 1144.24 24.044C1143.96 24.52 1143.55 24.8793 1143.01 25.122L1144.99 29H1143.01L1141.24 25.43H1138.26V29H1136.44ZM1138.26 23.904H1141.35C1141.82 23.904 1142.18 23.7687 1142.43 23.498C1142.68 23.2273 1142.81 22.854 1142.81 22.378C1142.81 22.07 1142.75 21.8133 1142.64 21.608C1142.53 21.3933 1142.37 21.23 1142.15 21.118C1141.94 21.006 1141.67 20.95 1141.35 20.95H1138.26V23.904ZM1149.35 29.168C1148.57 29.168 1147.91 29.0327 1147.39 28.762C1146.87 28.482 1146.47 28.0573 1146.21 27.488C1145.95 26.9187 1145.82 26.1953 1145.82 25.318C1145.82 24.4313 1145.95 23.708 1146.21 23.148C1146.47 22.5787 1146.87 22.1587 1147.39 21.888C1147.91 21.608 1148.57 21.468 1149.35 21.468C1150.06 21.468 1150.65 21.6033 1151.13 21.874C1151.61 22.1353 1151.98 22.5413 1152.22 23.092C1152.46 23.6427 1152.58 24.3567 1152.58 25.234V25.738H1147.57C1147.59 26.1953 1147.66 26.5827 1147.78 26.9C1147.9 27.208 1148.09 27.4413 1148.34 27.6C1148.6 27.7493 1148.94 27.824 1149.36 27.824C1149.58 27.824 1149.78 27.796 1149.97 27.74C1150.15 27.684 1150.32 27.6 1150.46 27.488C1150.6 27.3667 1150.7 27.2173 1150.78 27.04C1150.86 26.8627 1150.9 26.6573 1150.9 26.424H1152.58C1152.58 26.8907 1152.5 27.2967 1152.33 27.642C1152.17 27.9873 1151.94 28.272 1151.65 28.496C1151.36 28.72 1151.02 28.888 1150.62 29C1150.23 29.112 1149.81 29.168 1149.35 29.168ZM1147.6 24.534H1150.81C1150.81 24.226 1150.77 23.9647 1150.69 23.75C1150.63 23.5353 1150.53 23.358 1150.4 23.218C1150.28 23.078 1150.13 22.98 1149.95 22.924C1149.77 22.8587 1149.57 22.826 1149.35 22.826C1148.99 22.826 1148.68 22.8867 1148.43 23.008C1148.18 23.1293 1148 23.316 1147.87 23.568C1147.73 23.82 1147.65 24.142 1147.6 24.534ZM1155.92 29.168C1155.72 29.168 1155.48 29.14 1155.21 29.084C1154.95 29.0373 1154.69 28.944 1154.44 28.804C1154.2 28.664 1154 28.4587 1153.84 28.188C1153.68 27.908 1153.6 27.544 1153.6 27.096C1153.6 26.592 1153.71 26.1767 1153.94 25.85C1154.16 25.514 1154.47 25.2527 1154.87 25.066C1155.28 24.87 1155.77 24.7347 1156.33 24.66C1156.9 24.576 1157.52 24.534 1158.19 24.534V23.932C1158.19 23.7173 1158.16 23.526 1158.09 23.358C1158.03 23.19 1157.91 23.0593 1157.73 22.966C1157.56 22.8633 1157.3 22.812 1156.96 22.812C1156.61 22.812 1156.34 22.854 1156.15 22.938C1155.95 23.022 1155.82 23.1247 1155.74 23.246C1155.67 23.3673 1155.63 23.4933 1155.63 23.624V23.82H1153.98C1153.97 23.7733 1153.96 23.7267 1153.96 23.68C1153.96 23.6333 1153.96 23.5773 1153.96 23.512C1153.96 23.092 1154.09 22.728 1154.34 22.42C1154.59 22.112 1154.94 21.8787 1155.39 21.72C1155.84 21.552 1156.36 21.468 1156.95 21.468C1157.62 21.468 1158.17 21.5613 1158.6 21.748C1159.04 21.9347 1159.36 22.2007 1159.58 22.546C1159.79 22.8913 1159.9 23.3113 1159.9 23.806V27.278C1159.9 27.4553 1159.95 27.5813 1160.05 27.656C1160.16 27.7307 1160.27 27.768 1160.39 27.768H1160.84V28.944C1160.74 28.9813 1160.61 29.0233 1160.43 29.07C1160.25 29.126 1160.03 29.154 1159.77 29.154C1159.53 29.154 1159.31 29.112 1159.12 29.028C1158.93 28.9533 1158.77 28.8413 1158.64 28.692C1158.51 28.5427 1158.42 28.3653 1158.36 28.16H1158.28C1158.12 28.356 1157.93 28.5333 1157.7 28.692C1157.49 28.8413 1157.23 28.958 1156.93 29.042C1156.64 29.126 1156.31 29.168 1155.92 29.168ZM1156.44 27.768C1156.72 27.768 1156.97 27.726 1157.18 27.642C1157.41 27.558 1157.59 27.4413 1157.73 27.292C1157.88 27.1427 1157.99 26.9607 1158.07 26.746C1158.15 26.5313 1158.19 26.298 1158.19 26.046V25.71C1157.68 25.71 1157.2 25.7427 1156.76 25.808C1156.33 25.8733 1155.99 25.9947 1155.73 26.172C1155.48 26.3493 1155.35 26.6013 1155.35 26.928C1155.35 27.096 1155.39 27.2453 1155.46 27.376C1155.55 27.4973 1155.67 27.5953 1155.83 27.67C1155.99 27.7353 1156.2 27.768 1156.44 27.768ZM1161.81 29V18.878H1163.52V29H1161.81ZM1165.34 20.502V18.878H1167.05V20.502H1165.34ZM1165.34 29V21.636H1167.05V29H1165.34ZM1171.43 29.168C1170.83 29.168 1170.31 29.0327 1169.88 28.762C1169.44 28.4913 1169.1 28.0713 1168.85 27.502C1168.62 26.9327 1168.5 26.2 1168.5 25.304C1168.5 24.4173 1168.62 23.694 1168.87 23.134C1169.11 22.5647 1169.45 22.1447 1169.88 21.874C1170.3 21.6033 1170.79 21.468 1171.33 21.468C1171.67 21.468 1171.98 21.5053 1172.26 21.58C1172.54 21.6547 1172.78 21.7713 1173 21.93C1173.21 22.0793 1173.39 22.266 1173.54 22.49H1173.63V18.878H1175.34V29H1173.92L1173.78 28.02H1173.68C1173.45 28.4027 1173.13 28.692 1172.73 28.888C1172.34 29.0747 1171.91 29.168 1171.43 29.168ZM1171.96 27.698C1172.35 27.698 1172.67 27.6093 1172.91 27.432C1173.16 27.2547 1173.33 26.998 1173.45 26.662C1173.57 26.326 1173.63 25.9153 1173.63 25.43V25.248C1173.63 24.884 1173.59 24.5573 1173.53 24.268C1173.46 23.9787 1173.36 23.736 1173.22 23.54C1173.09 23.344 1172.92 23.1947 1172.7 23.092C1172.5 22.9893 1172.25 22.938 1171.96 22.938C1171.54 22.938 1171.21 23.022 1170.95 23.19C1170.71 23.3487 1170.53 23.6007 1170.42 23.946C1170.32 24.282 1170.27 24.7113 1170.27 25.234V25.43C1170.27 25.9433 1170.32 26.368 1170.42 26.704C1170.53 27.04 1170.71 27.292 1170.95 27.46C1171.21 27.6187 1171.54 27.698 1171.96 27.698ZM1179.04 29.168C1178.84 29.168 1178.6 29.14 1178.33 29.084C1178.07 29.0373 1177.81 28.944 1177.56 28.804C1177.32 28.664 1177.11 28.4587 1176.96 28.188C1176.8 27.908 1176.72 27.544 1176.72 27.096C1176.72 26.592 1176.83 26.1767 1177.05 25.85C1177.28 25.514 1177.59 25.2527 1177.99 25.066C1178.4 24.87 1178.89 24.7347 1179.45 24.66C1180.02 24.576 1180.64 24.534 1181.31 24.534V23.932C1181.31 23.7173 1181.28 23.526 1181.21 23.358C1181.15 23.19 1181.03 23.0593 1180.85 22.966C1180.68 22.8633 1180.42 22.812 1180.08 22.812C1179.73 22.812 1179.46 22.854 1179.27 22.938C1179.07 23.022 1178.93 23.1247 1178.86 23.246C1178.79 23.3673 1178.75 23.4933 1178.75 23.624V23.82H1177.1C1177.09 23.7733 1177.08 23.7267 1177.08 23.68C1177.08 23.6333 1177.08 23.5773 1177.08 23.512C1177.08 23.092 1177.21 22.728 1177.46 22.42C1177.71 22.112 1178.06 21.8787 1178.51 21.72C1178.96 21.552 1179.48 21.468 1180.06 21.468C1180.74 21.468 1181.29 21.5613 1181.72 21.748C1182.15 21.9347 1182.48 22.2007 1182.7 22.546C1182.91 22.8913 1183.02 23.3113 1183.02 23.806V27.278C1183.02 27.4553 1183.07 27.5813 1183.17 27.656C1183.27 27.7307 1183.39 27.768 1183.51 27.768H1183.96V28.944C1183.86 28.9813 1183.73 29.0233 1183.55 29.07C1183.37 29.126 1183.15 29.154 1182.89 29.154C1182.65 29.154 1182.43 29.112 1182.23 29.028C1182.05 28.9533 1181.89 28.8413 1181.76 28.692C1181.63 28.5427 1181.53 28.3653 1181.48 28.16H1181.39C1181.24 28.356 1181.04 28.5333 1180.82 28.692C1180.61 28.8413 1180.35 28.958 1180.05 29.042C1179.76 29.126 1179.42 29.168 1179.04 29.168ZM1179.56 27.768C1179.84 27.768 1180.09 27.726 1180.3 27.642C1180.53 27.558 1180.71 27.4413 1180.85 27.292C1181 27.1427 1181.11 26.9607 1181.18 26.746C1181.27 26.5313 1181.31 26.298 1181.31 26.046V25.71C1180.8 25.71 1180.32 25.7427 1179.88 25.808C1179.45 25.8733 1179.11 25.9947 1178.85 26.172C1178.59 26.3493 1178.47 26.6013 1178.47 26.928C1178.47 27.096 1178.51 27.2453 1178.58 27.376C1178.66 27.4973 1178.79 27.5953 1178.94 27.67C1179.11 27.7353 1179.32 27.768 1179.56 27.768ZM1187.49 29.168C1186.9 29.168 1186.38 29.0327 1185.94 28.762C1185.5 28.4913 1185.16 28.0713 1184.92 27.502C1184.68 26.9327 1184.57 26.2 1184.57 25.304C1184.57 24.4173 1184.69 23.694 1184.93 23.134C1185.17 22.5647 1185.51 22.1447 1185.94 21.874C1186.37 21.6033 1186.85 21.468 1187.4 21.468C1187.73 21.468 1188.04 21.5053 1188.32 21.58C1188.6 21.6547 1188.85 21.7713 1189.06 21.93C1189.28 22.0793 1189.46 22.266 1189.61 22.49H1189.69V18.878H1191.4V29H1189.99L1189.85 28.02H1189.75C1189.51 28.4027 1189.2 28.692 1188.8 28.888C1188.4 29.0747 1187.97 29.168 1187.49 29.168ZM1188.03 27.698C1188.42 27.698 1188.73 27.6093 1188.98 27.432C1189.22 27.2547 1189.4 26.998 1189.51 26.662C1189.63 26.326 1189.69 25.9153 1189.69 25.43V25.248C1189.69 24.884 1189.66 24.5573 1189.59 24.268C1189.53 23.9787 1189.43 23.736 1189.29 23.54C1189.15 23.344 1188.98 23.1947 1188.77 23.092C1188.56 22.9893 1188.31 22.938 1188.03 22.938C1187.61 22.938 1187.27 23.022 1187.02 23.19C1186.77 23.3487 1186.6 23.6007 1186.49 23.946C1186.38 24.282 1186.33 24.7113 1186.33 25.234V25.43C1186.33 25.9433 1186.38 26.368 1186.49 26.704C1186.6 27.04 1186.77 27.292 1187.02 27.46C1187.27 27.6187 1187.61 27.698 1188.03 27.698ZM1196.38 29.168C1195.6 29.168 1194.94 29.0327 1194.42 28.762C1193.9 28.482 1193.51 28.0573 1193.24 27.488C1192.98 26.9187 1192.85 26.1953 1192.85 25.318C1192.85 24.4313 1192.98 23.708 1193.24 23.148C1193.51 22.5787 1193.9 22.1587 1194.42 21.888C1194.94 21.608 1195.6 21.468 1196.38 21.468C1197.09 21.468 1197.68 21.6033 1198.16 21.874C1198.64 22.1353 1199.01 22.5413 1199.25 23.092C1199.49 23.6427 1199.61 24.3567 1199.61 25.234V25.738H1194.6C1194.62 26.1953 1194.69 26.5827 1194.81 26.9C1194.93 27.208 1195.12 27.4413 1195.37 27.6C1195.63 27.7493 1195.97 27.824 1196.39 27.824C1196.61 27.824 1196.81 27.796 1197 27.74C1197.18 27.684 1197.35 27.6 1197.49 27.488C1197.63 27.3667 1197.73 27.2173 1197.81 27.04C1197.89 26.8627 1197.93 26.6573 1197.93 26.424H1199.61C1199.61 26.8907 1199.53 27.2967 1199.36 27.642C1199.2 27.9873 1198.98 28.272 1198.68 28.496C1198.39 28.72 1198.05 28.888 1197.65 29C1197.26 29.112 1196.84 29.168 1196.38 29.168ZM1194.63 24.534H1197.84C1197.84 24.226 1197.8 23.9647 1197.72 23.75C1197.66 23.5353 1197.56 23.358 1197.43 23.218C1197.31 23.078 1197.16 22.98 1196.98 22.924C1196.81 22.8587 1196.6 22.826 1196.38 22.826C1196.02 22.826 1195.71 22.8867 1195.46 23.008C1195.21 23.1293 1195.03 23.316 1194.9 23.568C1194.77 23.82 1194.68 24.142 1194.63 24.534ZM1209.4 29L1205.9 19.396H1207.87L1210.16 26.004C1210.19 26.0973 1210.23 26.2047 1210.27 26.326C1210.31 26.4473 1210.34 26.564 1210.38 26.676C1210.42 26.7787 1210.45 26.872 1210.48 26.956H1210.55C1210.58 26.8813 1210.6 26.7927 1210.63 26.69C1210.67 26.5873 1210.71 26.48 1210.74 26.368C1210.78 26.2467 1210.82 26.13 1210.86 26.018L1213.12 19.396H1215.01L1211.51 29H1209.4ZM1216.06 20.502V18.878H1217.77V20.502H1216.06ZM1216.06 29V21.636H1217.77V29H1216.06ZM1219.59 29V21.636H1221.02L1221.16 22.798H1221.26C1221.35 22.5647 1221.46 22.35 1221.59 22.154C1221.73 21.9487 1221.91 21.7853 1222.12 21.664C1222.34 21.5333 1222.6 21.468 1222.91 21.468C1223.06 21.468 1223.19 21.482 1223.31 21.51C1223.44 21.538 1223.54 21.566 1223.61 21.594V23.204H1223.09C1222.8 23.204 1222.54 23.246 1222.32 23.33C1222.1 23.4047 1221.9 23.526 1221.75 23.694C1221.6 23.862 1221.48 24.072 1221.41 24.324C1221.34 24.576 1221.3 24.87 1221.3 25.206V29H1219.59ZM1226.61 29.168C1226.15 29.168 1225.79 29.0793 1225.53 28.902C1225.27 28.7153 1225.08 28.482 1224.97 28.202C1224.87 27.9127 1224.82 27.6187 1224.82 27.32V23.036H1223.93V21.636H1224.86L1225.17 19.578H1226.52V21.636H1227.8V23.036H1226.52V27.152C1226.52 27.348 1226.58 27.502 1226.68 27.614C1226.78 27.7167 1226.93 27.768 1227.14 27.768H1227.8V28.944C1227.7 28.9813 1227.59 29.014 1227.45 29.042C1227.32 29.0793 1227.18 29.1073 1227.03 29.126C1226.88 29.154 1226.74 29.168 1226.61 29.168ZM1231.4 29.168C1230.69 29.168 1230.11 28.9767 1229.67 28.594C1229.23 28.202 1229.01 27.5393 1229.01 26.606V21.636H1230.72V26.298C1230.72 26.5593 1230.74 26.7787 1230.8 26.956C1230.87 27.124 1230.95 27.264 1231.07 27.376C1231.19 27.4787 1231.33 27.5533 1231.5 27.6C1231.67 27.6467 1231.85 27.67 1232.06 27.67C1232.37 27.67 1232.64 27.5953 1232.89 27.446C1233.14 27.2967 1233.33 27.0913 1233.47 26.83C1233.62 26.5593 1233.7 26.256 1233.7 25.92V21.636H1235.41V29H1233.99L1233.85 28.02H1233.75C1233.59 28.244 1233.39 28.4447 1233.15 28.622C1232.93 28.79 1232.67 28.9207 1232.37 29.014C1232.08 29.1167 1231.76 29.168 1231.4 29.168ZM1239.12 29.168C1238.91 29.168 1238.67 29.14 1238.4 29.084C1238.14 29.0373 1237.88 28.944 1237.63 28.804C1237.39 28.664 1237.19 28.4587 1237.03 28.188C1236.87 27.908 1236.79 27.544 1236.79 27.096C1236.79 26.592 1236.9 26.1767 1237.13 25.85C1237.35 25.514 1237.67 25.2527 1238.07 25.066C1238.48 24.87 1238.96 24.7347 1239.52 24.66C1240.09 24.576 1240.71 24.534 1241.38 24.534V23.932C1241.38 23.7173 1241.35 23.526 1241.29 23.358C1241.22 23.19 1241.1 23.0593 1240.92 22.966C1240.75 22.8633 1240.5 22.812 1240.15 22.812C1239.81 22.812 1239.54 22.854 1239.34 22.938C1239.14 23.022 1239.01 23.1247 1238.93 23.246C1238.86 23.3673 1238.82 23.4933 1238.82 23.624V23.82H1237.17C1237.16 23.7733 1237.16 23.7267 1237.16 23.68C1237.16 23.6333 1237.16 23.5773 1237.16 23.512C1237.16 23.092 1237.28 22.728 1237.53 22.42C1237.79 22.112 1238.14 21.8787 1238.58 21.72C1239.03 21.552 1239.55 21.468 1240.14 21.468C1240.81 21.468 1241.36 21.5613 1241.79 21.748C1242.23 21.9347 1242.56 22.2007 1242.77 22.546C1242.99 22.8913 1243.09 23.3113 1243.09 23.806V27.278C1243.09 27.4553 1243.14 27.5813 1243.25 27.656C1243.35 27.7307 1243.46 27.768 1243.58 27.768H1244.03V28.944C1243.94 28.9813 1243.8 29.0233 1243.62 29.07C1243.45 29.126 1243.23 29.154 1242.97 29.154C1242.72 29.154 1242.5 29.112 1242.31 29.028C1242.12 28.9533 1241.96 28.8413 1241.83 28.692C1241.7 28.5427 1241.61 28.3653 1241.55 28.16H1241.47C1241.31 28.356 1241.12 28.5333 1240.89 28.692C1240.68 28.8413 1240.42 28.958 1240.12 29.042C1239.84 29.126 1239.5 29.168 1239.12 29.168ZM1239.63 27.768C1239.91 27.768 1240.16 27.726 1240.38 27.642C1240.6 27.558 1240.78 27.4413 1240.92 27.292C1241.07 27.1427 1241.18 26.9607 1241.26 26.746C1241.34 26.5313 1241.38 26.298 1241.38 26.046V25.71C1240.87 25.71 1240.4 25.7427 1239.96 25.808C1239.53 25.8733 1239.18 25.9947 1238.92 26.172C1238.67 26.3493 1238.54 26.6013 1238.54 26.928C1238.54 27.096 1238.58 27.2453 1238.65 27.376C1238.74 27.4973 1238.86 27.5953 1239.02 27.67C1239.19 27.7353 1239.39 27.768 1239.63 27.768ZM1245.01 29V18.878H1246.71V29H1245.01Z" fill="#CBD5E1"/>
</svg>
